<svg width="42" height="42" viewBox="0 0 42 42" fill="none" xmlns="http://www.w3.org/2000/svg">
<g clip-path="url(#clip0_428_1968)">
<path d="M13.2999 42.0001H28.6999C29.8597 42.0001 30.7999 41.0599 30.7999 39.9001V35.6777C34.3563 32.761 36.4126 28.3996 36.3999 23.8001C36.4698 19.8947 34.9468 16.129 32.1817 13.3701L33.4074 12.1444C33.6751 12.2744 33.9687 12.3424 34.2663 12.3432H34.3426C34.9529 12.3398 35.5308 12.0679 35.9225 11.5998V11.5963C36.6138 10.7292 36.5354 9.47928 35.7412 8.70534L32.8299 5.79124C32.4514 5.40542 31.9353 5.18562 31.3949 5.18014H31.3172C30.7696 5.18131 30.2453 5.40163 29.8612 5.79194C29.233 6.42199 29.0688 7.37899 29.451 8.18244L27.6849 9.94854C27.0159 9.61494 26.3231 9.33136 25.6122 9.10014C24.1674 3.50014 17.7519 0.782035 15.8087 0.079235C15.297 -0.102352 14.7266 0.0261751 14.3422 0.409635L13.0269 1.70324C12.7496 1.97242 12.5952 2.34374 12.5999 2.73014C12.6039 3.11846 12.7653 3.48854 13.0472 3.75564C14.6195 5.20305 15.7452 7.0698 16.2917 9.13584C10.9307 10.8573 6.93662 15.3673 5.8758 20.897C4.81497 26.4267 6.85657 32.0946 11.1999 35.6777V39.9001C11.1999 40.4571 11.4211 40.9912 11.815 41.3851C12.2088 41.7789 12.7429 42.0001 13.2999 42.0001ZM30.3575 9.25624C30.6334 9.51458 31.0645 9.50727 31.3315 9.23974C31.5984 8.97221 31.6048 8.54106 31.3459 8.26574L30.851 7.77084C30.5791 7.49773 30.5791 7.05624 30.851 6.78314C30.9798 6.65147 31.1569 6.57836 31.341 6.58084H31.355C31.5386 6.57315 31.7163 6.64662 31.8408 6.78174L34.7528 9.69374C35.0322 9.9543 35.0753 10.3815 34.8536 10.6926C34.7241 10.8633 34.5171 10.957 34.3034 10.9418C34.1211 10.9493 33.9448 10.8764 33.8211 10.7423L33.3262 10.2474C33.0509 9.98851 32.6197 9.9949 32.3522 10.2619C32.0847 10.5288 32.0774 10.96 32.3357 11.2358L29.9809 13.5892C29.6296 13.9534 29.1092 14.0997 28.6197 13.972C28.1301 13.8442 27.7476 13.4622 27.6191 12.9728C27.4906 12.4834 27.6362 11.9628 27.9999 11.611L30.3575 9.25624ZM6.9999 23.8001C6.98606 17.7133 10.9168 12.3189 16.7152 10.4672C17.4261 10.2442 17.8405 9.50618 17.6609 8.78304C17.0296 6.45713 15.7648 4.35221 14.0076 2.70284L15.3432 1.40014C17.1121 2.04064 22.983 4.51304 24.257 9.45364C24.3759 9.92294 24.7305 10.2966 25.1929 10.4399C25.7014 10.6034 26.1995 10.7974 26.6846 11.0209C25.8843 12.2134 26.1159 13.8181 27.2209 14.7355C28.3258 15.6529 29.9457 15.5856 30.9707 14.5797L31.1926 14.3578C33.6902 16.8584 35.0644 20.2665 34.9999 23.8001C35.0102 28.0895 33.0426 32.1441 29.6666 34.7901L29.6631 34.7943C28.8395 35.4441 27.9456 35.9994 26.9982 36.4498C26.7663 36.5534 26.6087 36.7745 26.5864 37.0275C26.5641 37.2806 26.6806 37.5258 26.8908 37.6684C27.101 37.8109 27.372 37.8284 27.5988 37.714C28.2211 37.4173 28.8229 37.0792 29.3999 36.7018V39.9001C29.3999 40.2867 29.0865 40.6001 28.6999 40.6001H13.2999C12.9133 40.6001 12.5999 40.2867 12.5999 39.9001V36.7025C13.1762 37.0811 13.7775 37.4202 14.3996 37.7175C14.7467 37.8726 15.1542 37.7222 15.3173 37.3788C15.4805 37.0354 15.3397 36.6245 15.0002 36.4533C14.0545 36.0033 13.1623 35.4487 12.3402 34.7999L12.3346 34.7936C8.95713 32.1471 6.98884 28.091 6.9999 23.8001Z" fill="white"/>
<path d="M20.9907 36.4C21.224 36.4 21.4585 36.3937 21.6942 36.3811C25.9091 36.1483 29.7274 33.8203 31.8649 30.1801C34.0023 26.5399 34.1748 22.0712 32.3244 18.277C32.0857 17.8004 31.5981 17.4995 31.0651 17.5H10.9352C10.4017 17.4996 9.9139 17.8007 9.67517 18.2777C7.77555 22.1814 8.01827 26.7879 10.3176 30.4704C12.6169 34.1529 16.6493 36.3931 20.9907 36.4ZM10.9352 18.9H31.0714C32.713 22.2716 32.5578 26.2411 30.6579 29.4742C28.758 32.7073 25.3657 34.7746 21.6214 34.9811C17.6559 35.2051 13.8689 33.3103 11.6707 30.0024C9.47248 26.6944 9.19255 22.469 10.9352 18.9Z" fill="white"/>
<path d="M20.2997 31.5008C21.4595 31.5008 22.3997 30.5606 22.3997 29.4008C22.3997 28.241 21.4595 27.3008 20.2997 27.3008C19.1399 27.3008 18.1997 28.241 18.1997 29.4008C18.1997 30.5606 19.1399 31.5008 20.2997 31.5008ZM20.2997 28.7008C20.6863 28.7008 20.9997 29.0142 20.9997 29.4008C20.9997 29.7874 20.6863 30.1008 20.2997 30.1008C19.9131 30.1008 19.5997 29.7874 19.5997 29.4008C19.5997 29.0142 19.9131 28.7008 20.2997 28.7008Z" fill="white"/>
<path d="M27.9999 29.3992C29.1597 29.3992 30.0999 28.459 30.0999 27.2992C30.0999 26.1394 29.1597 25.1992 27.9999 25.1992C26.8401 25.1992 25.8999 26.1394 25.8999 27.2992C25.8999 28.459 26.8401 29.3992 27.9999 29.3992ZM27.9999 26.5992C28.3865 26.5992 28.6999 26.9126 28.6999 27.2992C28.6999 27.6858 28.3865 27.9992 27.9999 27.9992C27.6133 27.9992 27.2999 27.6858 27.2999 27.2992C27.2999 26.9126 27.6133 26.5992 27.9999 26.5992Z" fill="white"/>
<path d="M29.3997 23.8004C29.7863 23.8004 30.0997 23.487 30.0997 23.1004C30.0997 22.7138 29.7863 22.4004 29.3997 22.4004C29.0131 22.4004 28.6997 22.7138 28.6997 23.1004C28.6997 23.487 29.0131 23.8004 29.3997 23.8004Z" fill="white"/>
<path d="M24.4998 32.2008C24.8864 32.2008 25.1998 31.8874 25.1998 31.5008C25.1998 31.1142 24.8864 30.8008 24.4998 30.8008C24.1132 30.8008 23.7998 31.1142 23.7998 31.5008C23.7998 31.8874 24.1132 32.2008 24.4998 32.2008Z" fill="white"/>
<path d="M14.7 30.8004C15.0866 30.8004 15.4 30.487 15.4 30.1004C15.4 29.7138 15.0866 29.4004 14.7 29.4004C14.3134 29.4004 14 29.7138 14 30.1004C14 30.487 14.3134 30.8004 14.7 30.8004Z" fill="white"/>
<path d="M16.7996 27.3004C17.1862 27.3004 17.4996 26.987 17.4996 26.6004C17.4996 26.2138 17.1862 25.9004 16.7996 25.9004C16.413 25.9004 16.0996 26.2138 16.0996 26.6004C16.0996 26.987 16.413 27.3004 16.7996 27.3004Z" fill="white"/>
<path d="M12.5999 27.3004C12.9865 27.3004 13.2999 26.987 13.2999 26.6004C13.2999 26.2138 12.9865 25.9004 12.5999 25.9004C12.2133 25.9004 11.8999 26.2138 11.8999 26.6004C11.8999 26.987 12.2133 27.3004 12.5999 27.3004Z" fill="white"/>
<path d="M23.0998 25.9008C24.6462 25.9008 25.8998 24.6472 25.8998 23.1008C25.8998 21.5544 24.6462 20.3008 23.0998 20.3008C21.5534 20.3008 20.2998 21.5544 20.2998 23.1008C20.2998 24.6472 21.5534 25.9008 23.0998 25.9008ZM23.0998 21.7008C23.873 21.7008 24.4998 22.3276 24.4998 23.1008C24.4998 23.874 23.873 24.5008 23.0998 24.5008C22.3266 24.5008 21.6998 23.874 21.6998 23.1008C21.6998 22.3276 22.3266 21.7008 23.0998 21.7008Z" fill="white"/>
<path d="M14.7001 24.5008C15.8599 24.5008 16.8001 23.5606 16.8001 22.4008C16.8001 21.241 15.8599 20.3008 14.7001 20.3008C13.5403 20.3008 12.6001 21.241 12.6001 22.4008C12.6001 23.5606 13.5403 24.5008 14.7001 24.5008ZM14.7001 21.7008C15.0867 21.7008 15.4001 22.0142 15.4001 22.4008C15.4001 22.7874 15.0867 23.1008 14.7001 23.1008C14.3135 23.1008 14.0001 22.7874 14.0001 22.4008C14.0001 22.0142 14.3135 21.7008 14.7001 21.7008Z" fill="white"/>
</g>
<defs>
<clipPath id="clip0_428_1968">
<rect width="42" height="42" fill="white"/>
</clipPath>
</defs>
</svg>
