<svg width="48" height="48" viewBox="0 0 48 48" fill="none" xmlns="http://www.w3.org/2000/svg">
<g clip-path="url(#clip0_428_1892)">
<path d="M47.2683 35.1992C45.3793 35.0721 43.4832 35.099 41.5985 35.2791V34.253C42.1462 34.0735 42.6084 33.6985 42.8968 33.1995C43.3066 32.4907 43.2991 31.6152 42.8776 30.9134C42.5364 30.3445 42.1625 29.7959 41.7577 29.2704C41.5199 28.9863 41.1684 28.8222 40.7978 28.8222C40.4273 28.8222 40.0757 28.9863 39.8379 29.2704C39.4334 29.7956 39.0595 30.3437 38.718 30.9118C38.2965 31.614 38.2892 32.4896 38.6988 33.1988C38.9874 33.6983 39.4503 34.0737 39.9987 34.2531V35.4529C36.1838 35.8823 32.5011 37.106 29.1879 39.0453C26.4645 38.5379 23.8133 37.7 21.2928 36.5504C22.9939 35.8927 24.6256 35.0683 26.1643 34.0891L26.2442 34.0395C26.3354 33.9843 26.4283 33.9275 26.4994 33.8795C37.8037 26.4947 46.7259 27.2003 47.1019 27.237C47.5419 27.2768 47.9308 26.9524 47.9705 26.5123C48.0103 26.0723 47.6859 25.6834 47.2458 25.6437C46.9763 25.6188 42.5208 25.2661 35.9991 27.4539V25.5076C37.0639 25.274 37.9833 24.6073 38.5364 23.6678C39.3142 22.3648 39.3569 20.7507 38.6492 19.4083C37.9995 18.1973 37.2825 17.0236 36.5015 15.8927C36.2106 15.4581 35.7221 15.1973 35.1992 15.1973C34.6764 15.1973 34.1879 15.4581 33.897 15.8927C33.116 17.0236 32.399 18.1973 31.7493 19.4083C31.0416 20.7507 31.0843 22.3648 31.862 23.6678C32.4152 24.6073 33.3345 25.2739 34.3994 25.5076V28.029C33.3283 28.4385 32.2124 28.9137 31.0565 29.4688C29.8605 27.5006 27.6974 26.329 25.3955 26.4026C23.0937 26.4762 21.0098 27.7834 19.9418 29.824C18.1516 28.8653 16.301 28.0241 14.4016 27.3058V25.1389C15.1675 24.9149 15.8204 24.4098 16.2294 23.7246C16.9224 22.5924 16.9873 21.1842 16.4014 19.9931C15.907 19.0015 15.3598 18.037 14.7624 17.1038C14.5161 16.6967 14.0748 16.4479 13.5989 16.4479C13.123 16.4479 12.6818 16.6967 12.4354 17.1038C11.8396 18.0369 11.2943 19.0014 10.802 19.9931C10.2171 21.1848 10.2832 22.593 10.9772 23.7246C11.3856 24.4091 12.0371 24.9142 12.8019 25.1389V26.7387C10.9723 26.1239 9.10103 25.6406 7.20253 25.2925V24.4006C7.69054 24.213 8.10412 23.8715 8.38083 23.4279C8.89171 22.5952 8.94055 21.5589 8.51038 20.6818C8.17639 20.0112 7.80659 19.3592 7.40248 18.7284C7.17582 18.3995 6.80199 18.2031 6.40256 18.2031C6.00314 18.2031 5.62931 18.3995 5.40265 18.7284C4.99872 19.3587 4.62892 20.0103 4.29474 20.6802C3.86457 21.5576 3.91351 22.594 4.42429 23.427C4.70082 23.871 5.1144 24.2126 5.60259 24.4005V25.0404C4.01409 24.8081 2.40693 24.7277 0.803146 24.8005C0.517335 24.8214 0.264427 24.9931 0.139566 25.251C0.0147053 25.509 0.0370152 25.8138 0.197965 26.0509C0.358916 26.2879 0.634134 26.4211 0.919945 26.4002C1.81506 26.3355 9.97646 25.9355 20.4057 31.8956C21.5278 32.5352 22.6929 33.0965 23.8925 33.5754C22.5623 34.3055 21.1704 34.9175 19.733 35.404C18.918 34.0217 18.0756 32.7915 17.4717 31.9532C17.1334 31.4807 16.5881 31.2005 16.007 31.2005C15.426 31.2005 14.8806 31.4808 14.5423 31.9532C14.332 32.2459 14.0896 32.5931 13.832 32.969C9.62541 31.5191 5.17308 30.9177 0.732654 31.1996C0.446843 31.2247 0.196184 31.4005 0.0750734 31.6605C-0.0460377 31.9205 -0.0192283 32.2255 0.145471 32.4604C0.310171 32.6953 0.587639 32.8246 0.87345 32.7993C4.9512 32.5582 9.03804 33.0818 12.9232 34.3431C12.5585 34.9207 12.185 35.543 11.8266 36.183C10.9706 37.7024 10.9925 39.5636 11.8841 41.0624C12.6005 42.2961 13.8346 43.1414 15.2438 43.3637V45.7178C13.1998 46.1459 11.1176 46.3659 9.02932 46.3746L0.803052 46.3977C0.361259 46.3977 0.00317539 46.7558 0.00317539 47.1976C0.00317539 47.6394 0.361259 47.9975 0.803052 47.9975L9.03167 47.9743C11.3775 47.9654 13.7153 47.7023 16.0045 47.1896C16.0173 47.1896 16.0285 47.1976 16.042 47.1976C16.1658 47.1954 16.2873 47.1639 16.3964 47.1056C18.9648 46.5081 21.4439 45.5763 23.7699 44.334C25.5781 43.3513 27.3259 42.2612 29.0037 41.0695C29.2509 40.8895 29.5061 40.7247 29.7741 40.5592C36.9269 35.9621 47.0241 36.7868 47.1249 36.7996C47.5669 36.8391 47.9573 36.5128 47.9968 36.0708C48.0363 35.6289 47.7102 35.2387 47.2683 35.1992ZM33.2322 22.8478C32.7353 22.0278 32.7092 21.0061 33.1634 20.1617C33.8745 18.8187 34.6721 17.594 35.1832 16.8021C35.9289 17.883 36.614 19.0046 37.235 20.1617C37.6892 21.0061 37.6631 22.0278 37.1662 22.8478C36.7676 23.5599 36.0152 24.001 35.1992 24.001C34.3831 24.001 33.6308 23.5599 33.2322 22.8478ZM7.02246 22.5815C6.89722 22.8095 6.66241 22.9563 6.40256 22.9686C6.14262 22.9562 5.9079 22.8095 5.78266 22.5815C5.56191 22.2183 5.54204 21.7676 5.72989 21.3864C5.95149 20.9384 6.18902 20.5137 6.40266 20.1546C6.61619 20.5137 6.85382 20.9385 7.07542 21.3872C7.26309 21.7681 7.24322 22.2186 7.02246 22.5815ZM12.3322 22.8806C11.9282 22.2189 11.8911 21.3963 12.2338 20.7009C12.697 19.761 13.2065 18.8931 13.6016 18.2588C13.9968 18.8931 14.5063 19.7611 14.9695 20.7009C15.3123 21.3963 15.2752 22.2189 14.8711 22.8806C14.624 23.3531 14.1348 23.6492 13.6016 23.6492C13.0684 23.6493 12.5794 23.3531 12.3322 22.8806ZM21.3481 30.5862C22.1736 28.9998 23.812 28.0033 25.6003 28.0001C27.2273 27.9985 28.7437 28.8234 29.6263 30.1902C28.3384 30.8662 27.0106 31.6373 25.6499 32.5243C24.1607 32.0086 22.721 31.3599 21.3481 30.5862ZM16.0015 41.8279C14.8726 41.8279 13.8292 41.2266 13.2633 40.2498V40.2523C12.6612 39.2416 12.6466 37.9858 13.2249 36.9615C14.0175 35.5554 14.889 34.1952 15.835 32.8876C15.8726 32.8326 15.9348 32.7998 16.0014 32.7998C16.0679 32.7998 16.1302 32.8326 16.1677 32.8876C17.1138 34.1945 17.9852 35.5539 18.7778 36.9591C19.3562 37.9836 19.3415 39.2392 18.7394 40.2499C18.1736 41.2266 17.1303 41.8279 16.0015 41.8279ZM23.0142 42.9255C21.0588 43.9687 18.9882 44.7797 16.8445 45.342V43.3478C18.219 43.1059 19.417 42.2699 20.1185 41.0633C20.6528 40.161 20.8823 39.1105 20.7728 38.0677C22.8792 39.0092 25.0683 39.7536 27.312 40.2915C25.9257 41.2427 24.4911 42.1219 23.0142 42.9255ZM40.7986 32.7756C40.5165 32.7756 40.2521 32.6383 40.0898 32.4075C39.965 32.1971 39.9678 31.9346 40.097 31.7268C40.3274 31.3372 40.577 30.9677 40.7986 30.6605C41.0193 30.9677 41.2697 31.3372 41.5001 31.7275C41.6292 31.9351 41.6319 32.1972 41.5073 32.4074C41.3451 32.6383 41.0806 32.7756 40.7986 32.7756Z" fill="white"/>
<path d="M12.4016 12.8016H14.4422C14.6384 14.1756 15.8132 15.1974 17.2011 15.2014H24.4002C25.884 15.2011 27.1099 14.0433 27.1949 12.5619C27.2798 11.0806 26.1943 9.79026 24.7202 9.6204C24.3455 7.75199 22.7064 6.40627 20.8007 6.40233C20.4338 6.40664 20.0693 6.46214 19.7177 6.56713C19.0829 4.90541 17.4243 3.86491 15.6519 4.01658C13.8795 4.16825 12.4219 5.47525 12.0785 7.22067C10.6038 7.39053 9.5181 8.68188 9.60387 10.1638C9.68964 11.6457 10.9172 12.8031 12.4016 12.8016ZM20.8006 8.00218C22.1259 8.00218 23.2004 9.07662 23.2004 10.4019C23.2004 10.8437 23.5584 11.2018 24.0002 11.2018H24.4002C25.0629 11.2018 25.6001 11.739 25.6001 12.4016C25.6018 12.7204 25.476 13.0266 25.2505 13.252C25.0252 13.4773 24.7189 13.6032 24.4002 13.6015H17.2011C16.5384 13.6015 16.0012 13.0643 16.0012 12.4016C16.0012 11.739 16.5384 11.2018 17.2011 11.2018H17.601C18.0428 11.2018 18.4009 10.8437 18.4009 10.4019C18.4009 9.07662 19.4753 8.00218 20.8006 8.00218ZM11.5513 9.15161C11.7766 8.92626 12.0829 8.80037 12.4016 8.80206H12.8016C13.2434 8.80206 13.6015 8.44388 13.6015 8.00218C13.603 6.81647 14.4703 5.80953 15.6427 5.63245C16.8151 5.45538 17.9412 6.16114 18.2929 7.29351C17.5648 7.88022 17.0652 8.70363 16.8811 9.6204C15.9197 9.72239 15.0833 10.3233 14.6798 11.2018H12.4016C11.739 11.2018 11.2017 10.6646 11.2017 10.0019C11.2 9.6832 11.3259 9.37705 11.5513 9.15161Z" fill="white"/>
<path d="M33.1996 8.80247H40.3988C41.8826 8.80219 43.1085 7.64442 43.1934 6.16306C43.2784 4.68169 42.1929 3.39138 40.7188 3.22152C40.3467 1.34992 38.7043 0.00195312 36.7961 0.00195312C34.888 0.00195312 33.2455 1.34992 32.8734 3.22152C31.3982 3.39147 30.3122 4.68376 30.3989 6.16624C30.4855 7.64882 31.7146 8.80566 33.1996 8.80247ZM32.3493 5.15255C32.5747 4.9271 32.8808 4.80121 33.1996 4.80299H33.5996C34.0414 4.80299 34.3995 4.44491 34.3995 4.00312C34.3995 2.67783 35.4739 1.60339 36.7992 1.60339C38.1245 1.60339 39.1989 2.67783 39.1989 4.00312C39.1989 4.44491 39.557 4.80299 39.9988 4.80299H40.3988C40.8275 4.80299 41.2236 5.03172 41.4379 5.40292C41.6522 5.77413 41.6522 6.23158 41.4379 6.60279C41.2236 6.97399 40.8275 7.20272 40.3988 7.20272H33.1996C32.7131 7.20422 32.274 6.91184 32.0876 6.46255C31.9013 6.01317 32.0046 5.49573 32.3493 5.15255Z" fill="white"/>
</g>
<defs>
<clipPath id="clip0_428_1892">
<rect width="48" height="48" fill="white"/>
</clipPath>
</defs>
</svg>
