<svg width="43" height="43" viewBox="0 0 43 43" fill="none" xmlns="http://www.w3.org/2000/svg">
<path d="M21.171 11.2159C18.8726 10.9347 17.5722 10.6747 17.5722 8.75578C17.5722 7.06182 19.6246 6.29568 21.0866 6.29568C23.7436 6.29568 24.6503 7.77877 24.6925 7.85609C24.818 8.07581 25.0513 8.21186 25.3043 8.21299C25.5574 8.21412 25.7918 8.08015 25.9193 7.86155C26.0469 7.64295 26.0481 7.37293 25.9225 7.1532C25.8733 7.06885 24.7909 5.17106 21.7895 4.91099V3.48414C21.7895 3.09594 21.4748 2.78125 21.0866 2.78125C20.6985 2.78125 20.3838 3.09594 20.3838 3.48414V4.93208C18.2259 5.17106 16.1664 6.49249 16.1664 8.75578C16.1664 12.0101 18.978 12.3616 21.0023 12.6146C23.3007 12.9028 24.6011 13.1629 24.6011 15.0818C24.6011 18.5329 18.4579 17.6473 17.3684 16.6914C17.0928 16.4157 16.6459 16.4157 16.3703 16.6914C16.0947 16.967 16.0947 17.4138 16.3703 17.6895C16.4898 17.8089 17.5722 18.786 20.3838 18.9476V20.3534C20.3838 20.7416 20.6985 21.0563 21.0866 21.0563C21.4748 21.0563 21.7895 20.7416 21.7895 20.3534V18.9476C24.8822 18.7016 26.0068 16.839 26.0068 15.1099C26.0068 11.8274 23.1953 11.4759 21.171 11.2159Z" fill="white"/>
<path d="M21.7896 41.4385V33.7068C21.7896 33.3186 21.4749 33.0039 21.0867 33.0039C20.6985 33.0039 20.3838 33.3186 20.3838 33.7068V41.4385C20.3838 41.8267 20.6985 42.1414 21.0867 42.1414C21.4749 42.1414 21.7896 41.8267 21.7896 41.4385Z" fill="white"/>
<path d="M25.3037 37.9242V28.0837C25.3037 27.6956 24.989 27.3809 24.6008 27.3809C24.2126 27.3809 23.8979 27.6956 23.8979 28.0837V37.9242C23.8979 38.3123 24.2126 38.627 24.6008 38.627C24.989 38.627 25.3037 38.3123 25.3037 37.9242Z" fill="white"/>
<path d="M18.2749 37.9253V31.5994C18.2749 31.2112 17.9602 30.8965 17.572 30.8965C17.1838 30.8965 16.8691 31.2112 16.8691 31.5994V37.9253C16.8691 38.3135 17.1838 38.6282 17.572 38.6282C17.9602 38.6282 18.2749 38.3135 18.2749 37.9253Z" fill="white"/>
<path d="M31.9391 6.94886C29.9876 2.71322 25.7502 0 21.0866 0C16.423 0 12.1855 2.71322 10.234 6.94886C1.78533 9.8096 0 14.2659 0 17.5413V39.3308C0 40.8836 1.25877 42.1423 2.81154 42.1423C4.36432 42.1423 5.62309 40.8836 5.62309 39.3308V37.2221H6.32597C7.25806 37.2221 8.15197 36.8519 8.81105 36.1928C9.47013 35.5337 9.8404 34.6398 9.8404 33.7077V32.3019H10.5433C12.4843 32.3019 14.0577 30.7285 14.0577 28.7875C14.0577 26.2501 13.889 23.8041 14.7606 22.0539C18.616 24.4723 23.515 24.4723 27.3704 22.0539C28.256 23.79 28.0733 26.1025 28.0733 28.7875C28.0733 30.7285 29.6467 32.3019 31.5877 32.3019H32.2906V33.7077C32.2906 35.6487 33.864 37.2221 35.805 37.2221H36.5079V39.3308C36.5079 40.8836 37.7667 42.1423 39.3194 42.1423C40.8722 42.1423 42.131 40.8836 42.131 39.3308V17.5413C42.1731 14.2659 40.3878 9.8096 31.9391 6.94886ZM12.6519 28.7875C12.6519 29.9521 11.7079 30.8962 10.5433 30.8962H9.8404V19.65C9.8404 19.2618 9.52571 18.9471 9.13752 18.9471C8.74932 18.9471 8.43463 19.2618 8.43463 19.65V33.7077C8.43463 34.8723 7.49055 35.8164 6.32597 35.8164H5.62309V23.1644C5.62309 22.7762 5.30839 22.4615 4.9202 22.4615C4.53201 22.4615 4.21731 22.7762 4.21731 23.1644V39.3308C4.21731 40.1072 3.58793 40.7366 2.81154 40.7366C2.03516 40.7366 1.40577 40.1072 1.40577 39.3308V17.5413C1.40577 13.7106 4.16108 10.7304 9.60142 8.67093C8.27969 13.2877 9.86598 18.2462 13.6219 21.2385C12.4411 23.3823 12.6519 26.1868 12.6519 28.7875ZM10.5433 11.9183C10.5433 6.09536 15.2637 1.37497 21.0866 1.37497C26.9095 1.37497 31.6299 6.09536 31.6299 11.9183C31.6299 17.7412 26.9095 22.4615 21.0866 22.4615C18.2903 22.4615 15.6086 21.3507 13.6313 19.3735C11.6541 17.3962 10.5433 14.7145 10.5433 11.9183ZM40.7674 39.3308C40.7674 40.1072 40.138 40.7366 39.3616 40.7366C38.5852 40.7366 37.9558 40.1072 37.9558 39.3308V23.1644C37.9558 22.7762 37.6411 22.4615 37.2529 22.4615C36.8648 22.4615 36.5501 22.7762 36.5501 23.1644V35.8164H35.8472C34.6826 35.8164 33.7385 34.8723 33.7385 33.7077V19.65C33.7385 19.2618 33.4238 18.9471 33.0356 18.9471C32.6474 18.9471 32.3327 19.2618 32.3327 19.65V30.8962H31.6299C30.4653 30.8962 29.5212 29.9521 29.5212 28.7875C29.5212 26.2009 29.7321 23.3683 28.5512 21.2385C32.3088 18.2473 33.8954 13.2877 32.5717 8.67093C38.0121 10.7304 40.7674 13.7106 40.7674 17.5413V39.3308Z" fill="white"/>
</svg>
