<svg width="42" height="42" viewBox="0 0 42 42" fill="none" xmlns="http://www.w3.org/2000/svg">
<g clip-path="url(#clip0_428_2001)">
<path d="M20.9997 7.80963e-06C15.8573 -0.00443069 10.8931 1.8832 7.05288 5.30321C6.66295 5.6496 6.5864 6.2297 6.87311 6.66539C7.15982 7.10108 7.72288 7.26028 8.19528 7.03921C10.2307 6.08554 12.4519 5.59406 14.6997 5.60001C21.0075 5.60208 26.6764 9.45069 29.0059 15.3126C31.3355 21.1746 29.8547 27.8645 25.2689 32.1957C20.6832 36.527 13.9197 37.6237 8.20018 34.9636C7.72688 34.7407 7.16171 34.9003 6.87482 35.3377C6.58792 35.7752 6.66684 36.3571 7.05988 36.7024C10.8963 40.1233 15.8595 42.0095 20.9997 42C21.2426 42 21.4897 41.9958 21.7312 41.9867C32.4909 41.5446 41.2 33.0875 41.9577 22.3454C42.3497 16.5454 40.3014 10.8452 36.3073 6.62131C32.3316 2.40416 26.7954 0.00944996 20.9997 7.80963e-06ZM40.5605 22.26C40.106 29.3254 35.8764 35.5964 29.496 38.6651C23.1156 41.7337 15.5763 41.1229 9.77308 37.0671C11.482 37.5895 13.2631 37.8369 15.0497 37.8C21.6 37.6519 27.4665 33.7093 30.0779 27.7002C32.6893 21.6911 31.569 14.7122 27.2081 9.82234C22.8471 4.93251 16.0413 3.0241 9.77378 4.93361C15.9483 0.618662 24.0493 0.224095 30.6139 3.91858C37.1785 7.61306 41.045 14.7428 40.5605 22.26Z" fill="white"/>
<path d="M1.00133 20.3652C0.709842 20.7393 0.709842 21.2637 1.00133 21.6378C1.90713 22.8208 6.71963 28.7008 12.5996 28.7008C18.4796 28.7008 23.2921 22.8208 24.1979 21.6364C24.4892 21.2627 24.4892 20.7389 24.1979 20.3652C23.2921 19.1843 18.4796 13.3008 12.5996 13.3008C6.71963 13.3008 1.90713 19.1843 1.00133 20.3652ZM22.555 21.4418C21.0402 23.2408 17.1202 27.3008 12.5996 27.3008C8.07903 27.3008 4.15833 23.2408 2.64423 21.4418C3.9451 20.0871 5.5454 19.0562 7.31673 18.4318C6.50244 20.7505 7.29504 23.3292 9.2711 24.7902C11.2472 26.2512 13.9449 26.2532 15.9231 24.795C17.9013 23.3369 18.6976 20.7594 17.8867 18.4395C19.6532 19.0676 21.2507 20.0951 22.555 21.4418ZM8.39963 20.3008C8.39679 19.4267 8.67563 18.575 9.19483 17.8718C11.4387 17.3757 13.764 17.3771 16.0072 17.876C16.5245 18.5784 16.8023 19.4285 16.7996 20.3008C16.7996 22.6204 14.9192 24.5008 12.5996 24.5008C10.28 24.5008 8.39963 22.6204 8.39963 20.3008ZM12.5996 14.7008C15.2512 14.7008 17.6935 16.1008 19.5702 17.6226C17.3902 16.5989 15.0079 16.0788 12.5996 16.1008C10.1914 16.0788 7.80902 16.5989 5.62903 17.6226C7.50573 16.1008 9.94803 14.7008 12.5996 14.7008Z" fill="white"/>
<path d="M13.2999 11.1992V8.39922C13.2999 8.01262 12.9865 7.69922 12.5999 7.69922C12.2133 7.69922 11.8999 8.01262 11.8999 8.39922V11.1992C11.8999 11.5858 12.2133 11.8992 12.5999 11.8992C12.9865 11.8992 13.2999 11.5858 13.2999 11.1992Z" fill="white"/>
<path d="M8.39976 12.6006C8.62477 12.6007 8.83609 12.4926 8.9677 12.3101C9.09931 12.1276 9.13517 11.8929 9.06406 11.6794L8.36406 9.57942C8.2419 9.21215 7.84513 9.01346 7.47786 9.13562C7.11059 9.25779 6.9119 9.65455 7.03406 10.0218L7.73406 12.1218C7.82947 12.4083 8.09782 12.6013 8.39976 12.6006Z" fill="white"/>
<path d="M3.99489 12.1047C3.72023 11.8394 3.28363 11.8432 3.01362 12.1132C2.74361 12.3832 2.73981 12.8198 3.00509 13.0945L4.40509 14.4945C4.58084 14.6765 4.84111 14.7494 5.08585 14.6854C5.33059 14.6213 5.52172 14.4302 5.58578 14.1855C5.64984 13.9407 5.57686 13.6805 5.39489 13.5047L3.99489 12.1047Z" fill="white"/>
<path d="M0.90493 17.2941C1.08068 17.4761 1.34094 17.5491 1.58569 17.485C1.83043 17.421 2.02156 17.2298 2.08562 16.9851C2.14968 16.7404 2.0767 16.4801 1.89473 16.3043L1.19473 15.6043C1.01898 15.4224 0.758716 15.3494 0.513975 15.4135C0.269234 15.4775 0.0781028 15.6686 0.014042 15.9134C-0.0500188 16.1581 0.0229604 16.4184 0.20493 16.5941L0.90493 17.2941Z" fill="white"/>
<path d="M16.7997 12.6006C17.1011 12.6007 17.3688 12.4078 17.464 12.1218L18.164 10.0218C18.2862 9.65455 18.0875 9.25779 17.7202 9.13562C17.353 9.01346 16.9562 9.21215 16.834 9.57942L16.134 11.6794C16.0628 11.8931 16.0989 12.1281 16.2308 12.3106C16.3627 12.4932 16.5745 12.6011 16.7997 12.6006Z" fill="white"/>
<path d="M20.7948 14.4945L22.1948 13.0945C22.4601 12.8198 22.4563 12.3832 22.1863 12.1132C21.9163 11.8432 21.4797 11.8394 21.205 12.1047L19.805 13.5047C19.6231 13.6805 19.5501 13.9407 19.6141 14.1855C19.6782 14.4302 19.8693 14.6213 20.1141 14.6854C20.3588 14.7494 20.6191 14.6765 20.7948 14.4945Z" fill="white"/>
<path d="M24.9948 15.6053C24.7215 15.3321 24.2784 15.3321 24.005 15.6053L23.305 16.3053C23.1231 16.4811 23.0501 16.7414 23.1141 16.9861C23.1782 17.2308 23.3693 17.422 23.6141 17.486C23.8588 17.5501 24.1191 17.4771 24.2948 17.2951L24.9948 16.5951C25.2681 16.3218 25.2681 15.8787 24.9948 15.6053Z" fill="white"/>
<path d="M11.8999 30.7996V33.5996C11.8999 33.9862 12.2133 34.2996 12.5999 34.2996C12.9865 34.2996 13.2999 33.9862 13.2999 33.5996V30.7996C13.2999 30.413 12.9865 30.0996 12.5999 30.0996C12.2133 30.0996 11.8999 30.413 11.8999 30.7996Z" fill="white"/>
<path d="M7.73553 29.8781L7.03553 31.9781C6.91336 32.3453 7.11206 32.7421 7.47933 32.8643C7.8466 32.9864 8.24336 32.7877 8.36553 32.4205L9.06553 30.3205C9.14455 30.0829 9.09083 29.8212 8.92459 29.634C8.75835 29.4467 8.50486 29.3624 8.25959 29.4128C8.01433 29.4631 7.81455 29.6405 7.73553 29.8781Z" fill="white"/>
<path d="M4.40474 27.5051L3.00473 28.9051C2.82277 29.0808 2.74979 29.3411 2.81385 29.5858C2.87791 29.8306 3.06904 30.0217 3.31378 30.0858C3.55852 30.1498 3.81878 30.0769 3.99453 29.8949L5.39454 28.4949C5.65982 28.2202 5.65602 27.7836 5.38601 27.5136C5.11599 27.2436 4.6794 27.2398 4.40474 27.5051Z" fill="white"/>
<path d="M0.90493 24.7043L0.20493 25.4043C0.0229604 25.5801 -0.0500188 25.8403 0.014042 26.0851C0.0781028 26.3298 0.269234 26.5209 0.513975 26.585C0.758716 26.6491 1.01898 26.5761 1.19473 26.3941L1.89473 25.6941C2.16001 25.4194 2.15622 24.9829 1.8862 24.7128C1.61619 24.4428 1.1796 24.439 0.90493 24.7043Z" fill="white"/>
<path d="M16.5786 29.4368C16.212 29.5589 16.0137 29.9549 16.1355 30.3216L16.8355 32.4216C16.9577 32.7889 17.3544 32.9875 17.7217 32.8654C18.089 32.7432 18.2877 32.3464 18.1655 31.9792L17.4655 29.8792C17.4067 29.7028 17.2802 29.557 17.1138 29.474C16.9474 29.391 16.7549 29.3776 16.5786 29.4368Z" fill="white"/>
<path d="M20.7947 27.5051C20.52 27.2398 20.0834 27.2436 19.8134 27.5136C19.5434 27.7836 19.5396 28.2202 19.8049 28.4949L21.2049 29.8949C21.4796 30.1602 21.9162 30.1564 22.1862 29.8864C22.4562 29.6164 22.46 29.1798 22.1947 28.9051L20.7947 27.5051Z" fill="white"/>
<path d="M24.2947 24.7043C24.02 24.439 23.5834 24.4428 23.3134 24.7128C23.0434 24.9828 23.0396 25.4194 23.3049 25.6941L24.0049 26.3941C24.2796 26.6594 24.7162 26.6556 24.9862 26.3856C25.2562 26.1156 25.26 25.679 24.9947 25.4043L24.2947 24.7043Z" fill="white"/>
<path d="M12.6 23.1004C13.7598 23.1004 14.7 22.1602 14.7 21.0004C14.7 19.8406 13.7598 18.9004 12.6 18.9004C11.4402 18.9004 10.5 19.8406 10.5 21.0004C10.5 22.1602 11.4402 23.1004 12.6 23.1004ZM12.6 20.3004C12.9866 20.3004 13.3 20.6138 13.3 21.0004C13.3 21.387 12.9866 21.7004 12.6 21.7004C12.2134 21.7004 11.9 21.387 11.9 21.0004C11.9 20.6138 12.2134 20.3004 12.6 20.3004Z" fill="white"/>
</g>
<defs>
<clipPath id="clip0_428_2001">
<rect width="42" height="42" fill="white"/>
</clipPath>
</defs>
</svg>
