<svg width="46" height="46" viewBox="0 0 46 46" fill="none" xmlns="http://www.w3.org/2000/svg">
<g clip-path="url(#clip0_428_1912)">
<path d="M19.167 20.1251C19.167 22.3179 22.3663 23.5813 22.7313 23.7186C22.9043 23.7824 23.0945 23.7824 23.2679 23.7186C23.6343 23.5813 26.8335 22.3179 26.8335 20.1251C26.7995 18.7182 25.634 17.6039 24.227 17.6334C23.7932 17.6264 23.3668 17.7464 23.0001 17.9784C22.6337 17.7464 22.2073 17.6264 21.7735 17.6334C20.3665 17.6039 19.2007 18.7182 19.167 20.1251ZM21.7735 19.1667C22.0388 19.1642 22.2894 19.2899 22.4459 19.5043C22.7527 19.8082 23.2475 19.8082 23.5546 19.5043C23.7111 19.2899 23.9613 19.1642 24.227 19.1667C24.7871 19.1376 25.2662 19.5654 25.3002 20.1251C25.3002 20.9341 23.8919 21.7813 23.0001 22.1723C22.1087 21.7813 20.7003 20.9341 20.7003 20.1251C20.7343 19.5654 21.2134 19.1376 21.7735 19.1667Z" fill="white"/>
<path d="M44.6537 14.7094C44.0893 14.4914 43.4594 14.5213 42.9182 14.7915C42.3977 15.0488 42.0068 15.5103 41.8387 16.0658L41.3379 17.7455C40.9978 18.985 40.2812 20.0884 39.2873 20.9033C38.8058 21.2869 38.3832 21.7393 38.0337 22.2457C37.5164 22.9897 36.8408 23.6091 36.055 24.0598L35.6791 24.2746C35.2531 23.9429 34.7281 23.7643 34.1879 23.7671C33.4008 23.7604 32.6617 24.1458 32.2163 24.795L29.6779 28.4628C28.5538 28.7762 24.66 30.0926 23 33.4582C21.3403 30.0926 17.4465 28.7762 16.3224 28.4628L13.7924 24.8041C13.3471 24.1493 12.6041 23.7601 11.812 23.7671C11.2722 23.7643 10.7472 23.9429 10.3212 24.2746L9.95232 24.0643C9.16057 23.612 8.47938 22.9887 7.95892 22.2397C7.61007 21.7358 7.18893 21.2855 6.70918 20.904C5.71494 20.0888 4.99829 18.9847 4.65857 17.7448L4.15777 16.0658C3.99036 15.511 3.60116 15.0498 3.0821 14.7915C2.54093 14.5206 1.91028 14.4907 1.3456 14.7094C0.529284 15.0287 -0.00591679 15.8184 4.93747e-05 16.6951V19.4553C0.00145318 20.3972 0.22922 21.3252 0.664751 22.1608L2.07031 24.881C2.37283 25.4667 2.76905 25.9995 3.24319 26.4578L7.35247 30.4232C10.2345 33.5151 14.2932 38.487 14.2932 39.867C14.1476 40.857 13.797 41.806 13.2635 42.6528C12.8898 43.3554 12.914 44.2033 13.3278 44.8831C13.7524 45.5832 14.5147 46.0079 15.3335 46.0002H19.9334C20.8164 46.01 21.6288 45.5183 22.0296 44.7315C22.4307 43.898 22.7554 43.0304 23 42.1387C23.2449 43.0304 23.5696 43.898 23.9707 44.7315C24.3715 45.5183 25.1836 46.01 26.0666 46.0002H30.6669C31.4856 46.0079 32.2482 45.5836 32.6732 44.8831C33.0867 44.2033 33.1112 43.3554 32.7375 42.6528C32.204 41.806 31.8531 40.857 31.7071 39.867C31.7071 38.487 35.7658 33.5151 38.6201 30.4523L42.7603 26.4578C43.233 25.9991 43.6282 25.4664 43.93 24.881L45.3306 22.1678C45.7683 21.3315 45.9981 20.4022 45.9999 19.4581V16.6982C46.0076 15.8201 45.4717 15.0287 44.6537 14.7094ZM20.657 44.0422C20.5159 44.3093 20.2355 44.4739 19.9334 44.4669H15.3335C15.0516 44.4746 14.787 44.3311 14.6396 44.0903C14.5038 43.8696 14.4968 43.5927 14.6214 43.3652C15.2847 42.3064 15.6967 41.1097 15.8265 39.867C15.8265 37.3906 9.70139 30.6945 8.44569 29.3483L4.30587 25.3541C3.95071 25.0122 3.65415 24.6146 3.42779 24.177L2.02574 21.4561C1.70321 20.8394 1.53441 20.154 1.53335 19.4581V16.6982C1.52739 16.4606 1.66601 16.2434 1.88395 16.1486C1.96046 16.1181 2.04223 16.102 2.12471 16.1002C2.21981 16.0998 2.31387 16.122 2.39915 16.1648C2.53918 16.2322 2.64517 16.3543 2.69184 16.5027L3.19195 18.1803C3.62116 19.7241 4.5196 21.0963 5.76302 22.1071C6.12344 22.3942 6.4393 22.7325 6.70076 23.1115C7.34896 24.0461 8.19721 24.8248 9.18409 25.3906L9.49608 25.5692C9.45151 25.7419 9.428 25.9195 9.42554 26.0977C9.4287 26.3546 9.47292 26.6098 9.5568 26.8526C9.7414 27.371 9.91687 27.9308 10.0625 28.4667C10.4163 29.7904 11.1224 30.9932 12.1058 31.9474C12.1254 31.9667 12.1465 31.9849 12.1686 32.0018L16.1782 35.1067C16.5133 35.366 16.9949 35.3046 17.2542 34.9698C17.5136 34.635 17.4525 34.1531 17.1173 33.8938L13.1414 30.8156C12.3721 30.0582 11.8201 29.1082 11.5432 28.0648C11.3898 27.4889 11.1982 26.8926 11.0066 26.3574C10.9767 26.2739 10.9603 26.1862 10.9574 26.0977C10.9574 25.9521 11.002 25.81 11.0855 25.6906C11.0915 25.6812 11.0922 25.6713 11.0985 25.6622C11.1045 25.6527 11.1206 25.6352 11.1298 25.6201C11.3105 25.4215 11.5688 25.3123 11.8369 25.3218C12.1051 25.3309 12.3556 25.4573 12.522 25.6675L15.2215 29.5697C15.3324 29.7297 15.4998 29.8417 15.69 29.8835C15.9592 29.9417 22.2335 31.3701 22.2335 36.8003C22.237 39.2995 21.7001 41.7698 20.6595 44.0422H20.657ZM44.4666 19.4581C44.4655 20.1554 44.296 20.8423 43.9721 21.4599L42.5701 24.177C42.3433 24.6146 42.0464 25.0122 41.6913 25.3541L37.5262 29.3774C36.2993 30.6945 30.1738 37.3906 30.1738 39.867C30.3033 41.1097 30.7156 42.3064 31.3789 43.3652C31.5035 43.5927 31.4965 43.8696 31.3607 44.0903C31.2133 44.3311 30.9487 44.4746 30.6669 44.4669H26.0666C25.7637 44.4746 25.4826 44.31 25.3408 44.0422C24.3003 41.7698 23.7633 39.2995 23.7668 36.8003C23.7668 31.3701 30.0411 29.9417 30.3089 29.8835C30.4987 29.8417 30.6662 29.7297 30.7771 29.5697L33.4825 25.6598C33.6429 25.4415 33.8953 25.3092 34.1662 25.3014C34.4371 25.2937 34.6965 25.4116 34.8688 25.6208C34.8779 25.6359 34.8909 25.6482 34.9004 25.6629C34.9095 25.6773 34.907 25.6819 34.9134 25.6913C34.9965 25.8107 35.0411 25.9528 35.0415 26.0984C35.039 26.1806 35.0246 26.262 34.9983 26.3399C34.8021 26.8933 34.6151 27.49 34.4564 28.0687C34.1792 29.111 33.6275 30.06 32.8585 30.8163L28.8826 33.8945C28.5482 34.1542 28.4871 34.6364 28.7472 34.9708C29.0069 35.3056 29.4887 35.3664 29.8235 35.1067L33.8331 32.0018C33.8552 31.9849 33.8763 31.9667 33.896 31.9474C34.8786 30.9942 35.5847 29.7922 35.9385 28.4695C36.0848 27.9329 36.2603 27.371 36.4505 26.8351C36.5312 26.5975 36.5737 26.3487 36.5762 26.0977C36.5737 25.9195 36.5502 25.7419 36.5056 25.5692L36.8246 25.386C37.807 24.8224 38.6513 24.0471 39.2971 23.1168C39.56 22.7356 39.8772 22.3952 40.2394 22.1064C41.4821 21.0963 42.3802 19.7248 42.8091 18.1817L43.3099 16.5027C43.3565 16.3543 43.4625 16.2322 43.6026 16.1648C43.7636 16.0858 43.9507 16.0788 44.1171 16.1455C44.3353 16.2402 44.474 16.4575 44.4684 16.6951L44.4666 19.4581Z" fill="white"/>
<path d="M19.5035 11.5652C16.5197 13.0312 14.613 16.0493 14.5705 19.3735C14.4877 22.6728 16.3635 25.7086 19.3508 27.1106C19.5063 27.1882 19.6407 27.3029 19.7418 27.4444C20.4903 28.506 21.7092 29.1363 23.0084 29.1335C24.3073 29.1307 25.5237 28.4951 26.2677 27.4303C26.3642 27.2966 26.492 27.1882 26.6404 27.1155C29.5477 25.7461 31.4116 22.8304 31.4333 19.6168C31.4333 15.8384 29.5291 12.749 26.4632 11.5523C26.2231 11.4554 26.0662 11.222 26.0666 10.9634V7.96097C26.0631 7.1787 26.5172 6.46662 27.2282 6.14024C27.8866 5.77946 28.2151 5.0172 28.0256 4.29073C27.8361 3.56426 27.177 3.05994 26.4263 3.06661H26.0666V1.73651C26.0659 0.777707 25.2889 0.000701902 24.3304 0H21.6699C20.7114 0.000701902 19.9344 0.777707 19.9334 1.73651V3.06661H19.574C18.6647 3.0645 17.9252 3.79869 17.921 4.70801C17.921 5.30533 18.2474 5.85456 18.7721 6.14024C19.48 6.42311 19.9415 7.11202 19.9334 7.87429V10.9634C19.9232 11.2318 19.754 11.4684 19.5035 11.5652ZM21.4667 1.73651C21.4667 1.6242 21.5576 1.5333 21.6699 1.5333H24.3304C24.4424 1.5333 24.5333 1.6242 24.5333 1.73651V3.06661H21.4667V1.73651ZM19.5063 4.79399C19.474 4.77715 19.4536 4.7431 19.4543 4.7066C19.4578 4.64413 19.5115 4.59641 19.574 4.59992H26.4263C26.4891 4.59711 26.5425 4.64519 26.546 4.70801C26.5463 4.74416 26.526 4.7775 26.4937 4.79399C25.2885 5.3878 24.5273 6.61718 24.5333 7.96097V10.9634C24.5354 11.8534 25.0787 12.6525 25.9059 12.982C28.3667 13.9426 29.9 16.4831 29.9 19.6168C29.88 22.2384 28.3569 24.6157 25.9841 25.73C25.6069 25.9114 25.2801 26.1831 25.0334 26.5214C24.5831 27.2033 23.817 27.6093 23 27.5998C22.1865 27.617 21.4214 27.2141 20.9754 26.5337C20.7251 26.189 20.3935 25.9118 20.0102 25.7261C17.5704 24.5859 16.0361 22.1103 16.1003 19.4181C16.1421 16.6895 17.6891 14.2072 20.1204 12.968C20.9259 12.6248 21.4537 11.839 21.4667 10.9634V7.87429C21.4755 6.55155 20.7083 5.34639 19.5063 4.79399Z" fill="white"/>
<path d="M33.1915 7.89086L31.6582 9.42417C31.4589 9.61684 31.3792 9.90181 31.4494 10.1699C31.5192 10.4381 31.7287 10.6472 31.9969 10.7174C32.265 10.7876 32.55 10.7076 32.7423 10.5083L34.2756 8.97495C34.5662 8.67418 34.562 8.19618 34.2665 7.90033C33.9706 7.60448 33.4926 7.60062 33.1915 7.89086Z" fill="white"/>
<path d="M32.9668 12.2668C32.9668 12.6901 33.31 13.0333 33.7336 13.0333H35.2669C35.6902 13.0333 36.0334 12.6901 36.0334 12.2668C36.0334 11.8432 35.6902 11.5 35.2669 11.5H33.7336C33.31 11.5 32.9668 11.8432 32.9668 12.2668Z" fill="white"/>
<path d="M13.7999 10.7329C14.1098 10.7329 14.3895 10.5462 14.5081 10.2598C14.6267 9.9734 14.5611 9.64351 14.3417 9.42416L12.8084 7.89086C12.5077 7.60062 12.0297 7.60448 11.7338 7.90033C11.438 8.19618 11.4341 8.67418 11.7244 8.97495L13.2577 10.5083C13.4015 10.6521 13.5967 10.7329 13.7999 10.7329Z" fill="white"/>
<path d="M9.9668 12.2668C9.9668 12.6901 10.31 13.0333 10.7336 13.0333H12.2669C12.6902 13.0333 13.0334 12.6901 13.0334 12.2668C13.0334 11.8432 12.6902 11.5 12.2669 11.5H10.7336C10.31 11.5 9.9668 11.8432 9.9668 12.2668Z" fill="white"/>
</g>
<defs>
<clipPath id="clip0_428_1912">
<rect width="46" height="46" fill="white"/>
</clipPath>
</defs>
</svg>
