<svg width="50" height="50" viewBox="0 0 50 50" fill="none" xmlns="http://www.w3.org/2000/svg">
<g clip-path="url(#clip0_428_1928)">
<path d="M24.9999 28.3323C25.3188 28.3327 25.6313 28.2431 25.9016 28.074C35.7866 21.8548 38.4474 11.9782 39.1516 6.64317C39.2804 5.73635 38.65 4.8967 37.7432 4.76733C34.4416 4.27817 29.7257 3.11233 26.0082 0.336501C25.4114 -0.114771 24.5875 -0.114771 23.9907 0.336501C20.2749 3.1115 15.5582 4.27817 12.2566 4.76733C11.3498 4.8967 10.7194 5.73635 10.8482 6.64317C11.5524 11.9765 14.2124 21.8548 24.0982 28.074C24.3684 28.2434 24.681 28.333 24.9999 28.3323ZM12.4999 6.41567C15.9916 5.89817 20.9924 4.654 25.0099 1.67067C29.0066 4.65567 34.0074 5.899 37.4999 6.42484C36.8332 11.4698 34.3232 20.8065 25.0141 26.6657C25.0046 26.6686 24.9944 26.6686 24.9849 26.6657C15.6766 20.8065 13.1666 11.4698 12.4999 6.41567Z" fill="white"/>
<path d="M26.0172 23.941C30.6511 20.3089 33.9048 15.2023 35.2389 9.4677C35.3483 9.03382 35.2786 8.57419 35.0455 8.19223C34.8125 7.81027 34.4356 7.53807 33.9997 7.43687C31.1366 6.78734 28.3886 5.70698 25.8497 4.2327C25.326 3.91983 24.6727 3.91983 24.1489 4.2327C21.6102 5.70679 18.8626 6.78714 15.9998 7.43687C15.5647 7.53883 15.1888 7.81122 14.9564 8.1929C14.7241 8.57457 14.6547 9.03357 14.7639 9.46687C16.0964 15.2013 19.3486 20.3083 23.9814 23.941C24.5825 24.3999 25.4162 24.3999 26.0172 23.941ZM16.3848 9.05854C19.4121 8.37181 22.3171 7.22785 24.9997 5.66604C27.6877 7.22749 30.5956 8.37483 33.6256 9.06937C32.3792 14.4381 29.3325 19.2183 24.9922 22.6152C20.6585 19.2125 17.6208 14.4281 16.3848 9.05854Z" fill="white"/>
<path d="M20.6065 11.3571C20.4979 11.0783 20.2481 10.8791 19.9521 10.8352C19.6561 10.7913 19.3593 10.9095 19.1745 11.1449C18.9897 11.3803 18.9453 11.6967 19.0581 11.9738C19.9201 14.1664 21.1208 16.2101 22.6165 18.0305C22.9101 18.3851 23.4356 18.4345 23.7902 18.1409C24.1448 17.8473 24.1943 17.3217 23.9006 16.9671C22.5161 15.2808 21.4046 13.3878 20.6065 11.3571Z" fill="white"/>
<path d="M5.01167 28.3214C5.095 31.6247 5.73 33.988 7.18833 36.1414C5.64258 36.0885 4.15347 36.7262 3.125 37.8814C2.59264 38.4848 2.64853 39.4051 3.25 39.9397L5.1175 41.6014C7.23485 43.4819 10.4667 43.326 12.3933 41.2505C14.3528 42.5713 16.4727 43.6368 18.7017 44.4214C17.4205 45.4035 16.6685 46.9253 16.6667 48.5397C16.6676 49.3447 17.32 49.9971 18.125 49.998H20.625C22.3953 49.9963 24.0433 49.095 25 47.6055C25.9567 49.095 27.6047 49.9963 29.375 49.998H31.875C32.68 49.9971 33.3324 49.3447 33.3333 48.5397C33.3323 46.9259 32.5816 45.4042 31.3017 44.4214C33.5304 43.6381 35.6503 42.574 37.61 41.2547C39.5366 43.3302 42.7685 43.486 44.8858 41.6055L46.75 39.9397C47.3508 39.4039 47.4048 38.483 46.8708 37.8805C45.8428 36.7252 44.3539 36.0875 42.8083 36.1405C44.2667 33.9855 44.8983 31.6247 44.985 28.3214C47.7815 28.2166 49.9957 25.9215 50 23.123V20.623C49.9991 19.818 49.3467 19.1656 48.5417 19.1647C47.2262 19.165 45.9601 19.6655 45 20.5647V18.3314C45 17.8711 44.6269 17.498 44.1667 17.498C43.7064 17.498 43.3333 17.8711 43.3333 18.3314V20.5647C42.3732 19.6655 41.1071 19.165 39.7917 19.1647C38.9866 19.1656 38.3342 19.818 38.3333 20.623V23.123C38.3379 25.9114 40.5367 28.2019 43.3225 28.3205C43.3409 30.1798 42.9788 32.0231 42.2583 33.7372C42.0752 32.848 41.6613 32.0226 41.0583 31.3439C40.8016 31.0536 40.4394 30.8784 40.0525 30.8572C39.6663 30.8311 39.2861 30.9632 38.9992 31.223L37.1308 32.8847C35.0817 34.7143 34.8046 37.8204 36.4975 39.9839C35.3194 40.7521 34.0895 41.4379 32.8167 42.0364C33.1564 41.3349 33.333 40.5657 33.3333 39.7864C33.3306 38.9826 32.6787 38.3323 31.875 38.3314H29.375C27.6047 38.3331 25.9567 39.2344 25 40.7239C24.0433 39.2344 22.3953 38.3331 20.625 38.3314H18.125C17.32 38.3323 16.6676 38.9847 16.6667 39.7897C16.667 40.5691 16.8436 41.3383 17.1833 42.0397C15.9096 41.4403 14.6788 40.7534 13.5 39.9839C15.1929 37.8204 14.9158 34.7143 12.8667 32.8847L11 31.2239C10.7129 30.9643 10.3329 30.832 9.94666 30.8572C9.55949 30.8781 9.19688 31.0534 8.94 31.3439C8.33702 32.0226 7.92317 32.848 7.74 33.7372C7.01953 32.0231 6.65738 30.1798 6.67583 28.3205C9.46228 28.2028 11.662 25.912 11.6667 23.123V20.623C11.6657 19.818 11.0134 19.1656 10.2083 19.1647C8.89288 19.165 7.62676 19.6655 6.66667 20.5647V18.3314C6.66667 17.8711 6.29357 17.498 5.83333 17.498C5.3731 17.498 5 17.8711 5 18.3314V20.5647C4.03991 19.6655 2.77378 19.165 1.45833 19.1647C0.653299 19.1656 0.000918466 19.818 0 20.623V23.123C0.00423628 25.9202 2.21652 28.2149 5.01167 28.3214ZM6.2225 40.3564L4.51417 38.8364C5.84222 37.5148 7.96886 37.4535 9.37083 38.6964L11.0792 40.2164C9.75129 41.5383 7.62432 41.5996 6.2225 40.3564ZM20.625 48.3314H18.3392C18.4515 46.4603 20.0006 44.9999 21.875 44.998H24.1608C24.0485 46.869 22.4994 48.3294 20.625 48.3314ZM29.375 48.3314C27.5006 48.3294 25.9515 46.869 25.8392 44.998H28.125C29.9994 44.9999 31.5485 46.4603 31.6608 48.3314H29.375ZM45.4858 38.8364L43.7775 40.3564C42.3757 41.5996 40.2487 41.5383 38.9208 40.2164L40.6292 38.6964C42.0308 37.4527 44.1581 37.514 45.4858 38.8364ZM48.3333 20.8372V23.123C48.331 24.9973 46.8708 26.5461 45 26.6589V24.373C45.0023 22.4988 46.4625 20.9499 48.3333 20.8372ZM40 23.123V20.8372C41.8708 20.9499 43.331 22.4988 43.3333 24.373V26.6589C41.4625 26.5461 40.0023 24.9973 40 23.123ZM38.2392 34.1297L39.9475 32.6114C41.0932 34.0691 40.9217 36.1635 39.5542 37.4155C39.5358 37.4339 39.52 37.4514 39.5017 37.4689L37.8133 38.9689C36.6545 37.4966 36.841 35.3769 38.2392 34.1297ZM29.375 39.998H31.6608C31.5485 41.869 29.9994 43.3294 28.125 43.3314H25.8392C25.9515 41.4604 27.5006 39.9999 29.375 39.998ZM18.3392 39.998H20.625C22.4994 39.9999 24.0485 41.4604 24.1608 43.3314H21.875C20.0006 43.3294 18.4515 41.869 18.3392 39.998ZM10.0525 32.6114L11.7608 34.1297C13.16 35.3771 13.3466 37.498 12.1867 38.9705L10.4983 37.4705C10.48 37.453 10.4642 37.4355 10.4458 37.4172C9.07727 36.165 8.90576 34.0694 10.0525 32.6114ZM10 20.8372V23.123C9.99767 24.9973 8.53749 26.5461 6.66667 26.6589V24.373C6.669 22.4988 8.12918 20.9499 10 20.8372ZM1.66667 20.8372C3.53749 20.9499 4.99767 22.4988 5 24.373V26.6589C3.12918 26.5461 1.669 24.9973 1.66667 23.123V20.8372Z" fill="white"/>
</g>
<defs>
<clipPath id="clip0_428_1928">
<rect width="50" height="50" fill="white"/>
</clipPath>
</defs>
</svg>
