<svg width="40" height="40" viewBox="0 0 40 40" fill="none" xmlns="http://www.w3.org/2000/svg">
<g clip-path="url(#clip0_428_2028)">
<path d="M39.1316 18.2059C39.9189 17.4386 40.1969 16.3125 39.8573 15.2656C39.5169 14.2187 38.6302 13.4715 37.5409 13.3129L27.8557 11.9056C27.4432 11.8455 27.0867 11.5868 26.9025 11.2127L22.5725 2.43661C22.0863 1.45063 21.0996 0.837891 19.9998 0.837891C18.9009 0.837891 17.9141 1.45063 17.4279 2.43661L13.0971 11.2127C12.9129 11.5868 12.5557 11.8455 12.1432 11.9056L2.45798 13.3137C1.36948 13.4715 0.482813 14.2187 0.142405 15.2656C-0.197203 16.3125 0.0807308 17.4386 0.868076 18.2059L7.87568 25.0365C8.17444 25.3281 8.31141 25.7478 8.24092 26.1579L6.58694 35.8039C6.40111 36.8876 6.83764 37.9616 7.72751 38.6088C8.61657 39.2568 9.77396 39.3409 10.7487 38.8275L19.4103 34.2732C19.7796 34.0794 20.2201 34.0794 20.5893 34.2732L29.2517 38.8275C29.6746 39.0502 30.1328 39.1599 30.5885 39.1599C31.1805 39.1599 31.77 38.9749 32.273 38.6088C33.1628 37.9616 33.5994 36.8876 33.4135 35.8039L31.7587 26.1587C31.6883 25.7478 31.8252 25.3289 32.124 25.0373L39.1316 18.2059ZM30.1809 26.4294L31.8348 36.0746C31.9181 36.56 31.7299 37.0237 31.331 37.3137C30.9314 37.6028 30.434 37.6381 29.9974 37.4106L21.335 32.8555C20.9177 32.6369 20.458 32.5263 19.9998 32.5263C19.5417 32.5263 19.0827 32.6369 18.6646 32.8563L10.0038 37.4106C9.56571 37.6381 9.06832 37.6028 8.66944 37.3137C8.27056 37.0237 8.08313 36.5608 8.16563 36.0746L9.81962 26.4294C9.97901 25.4987 9.67064 24.5487 8.99463 23.8904L1.98622 17.059C1.63299 16.7145 1.51285 16.2292 1.66583 15.7606C1.81802 15.2912 2.20007 14.9692 2.68786 14.898L12.3723 13.4907C13.307 13.3553 14.1152 12.769 14.5325 11.9216L18.8633 3.14546C19.0811 2.70333 19.5064 2.43981 19.999 2.43981C20.4924 2.43981 20.9169 2.70333 21.1356 3.14546L25.4664 11.9216C25.8837 12.769 26.6911 13.3553 27.6258 13.4907L37.311 14.898C37.7988 14.9692 38.1809 15.2912 38.333 15.7606C38.4852 16.2292 38.3659 16.7145 38.0126 17.059L31.005 23.8896C30.329 24.5487 30.0207 25.4979 30.1809 26.4294Z" fill="white"/>
</g>
<defs>
<clipPath id="clip0_428_2028">
<rect width="40" height="40" fill="white"/>
</clipPath>
</defs>
</svg>
