<svg width="58" height="58" viewBox="0 0 58 58" fill="none" xmlns="http://www.w3.org/2000/svg">
<g clip-path="url(#clip0_428_1937)">
<path d="M39.0282 7.79477V2.45048C39.0282 1.6494 38.3788 1 37.5777 1H33.2263C32.4252 1 31.7758 1.6494 31.7758 2.45048V3.30191L25.3074 4.48115C24.5682 4.61524 23.8889 4.97531 23.363 5.51171L18.6315 10.3657C18.2088 10.7907 17.9807 11.3716 18.0013 11.9707C18.0219 12.5697 18.2894 13.1336 18.7403 13.5285C19.1275 13.87 19.6267 14.0571 20.1429 14.0543C20.6005 14.0531 21.0471 13.9146 21.4252 13.6569L26.0885 10.5006L26.0979 10.5253C26.6042 11.7877 27.9179 12.5305 29.2607 12.3137L31.3 11.9794C31.5941 11.9305 31.8949 11.9411 32.1848 12.0106L33.2865 12.2898C34.2292 12.5109 35.2168 12.4414 36.1192 12.0904C37.8824 11.396 39.0379 9.68972 39.0282 7.79477ZM37.5777 7.79477C37.5838 9.09361 36.7922 10.2631 35.584 10.74C34.9605 10.9783 34.2803 11.0263 33.6295 10.8778L32.5329 10.6C32.0521 10.4828 31.5525 10.4643 31.0643 10.5456L29.0242 10.8799C28.3729 10.9849 27.7328 10.6371 27.4664 10.0336L30.268 9.23582C31.0307 9.01363 31.7256 8.60398 32.2893 8.04425C32.4776 7.86203 32.5531 7.59233 32.4865 7.33881C32.42 7.0853 32.2218 6.88742 31.9682 6.82123C31.7146 6.75503 31.445 6.83083 31.263 7.01949C30.8737 7.40647 30.3934 7.68951 29.8662 7.84263L26.2915 8.85797C25.971 8.93572 25.6639 9.06113 25.3806 9.23002L20.6122 12.4588C20.3405 12.6598 19.9681 12.6548 19.702 12.4465C19.5451 12.3109 19.4525 12.1156 19.4467 11.9083C19.4406 11.7156 19.5149 11.529 19.652 11.3934L19.6621 11.3825L24.3957 6.52342C24.7123 6.1999 25.1216 5.98271 25.567 5.90189L32.0354 4.72628C32.724 4.601 33.225 4.00183 33.2263 3.30191V2.45048H37.5777V7.79477Z" fill="white"/>
<path d="M50.2594 40.0282L55.6037 40.0282C56.4048 40.0282 57.0542 39.3788 57.0542 38.5777L57.0542 34.2263C57.0542 33.4252 56.4048 32.7758 55.6037 32.7758L54.7523 32.7758L53.573 26.3074C53.439 25.5682 53.0789 24.8889 52.5425 24.363L47.6885 19.6315C47.2635 19.2088 46.6826 18.9807 46.0835 19.0013C45.4845 19.0219 44.9206 19.2894 44.5257 19.7403C44.1842 20.1275 43.9971 20.6267 43.9999 21.1429C44.0011 21.6005 44.1396 22.0471 44.3973 22.4252L47.5536 27.0885L47.5289 27.0979C46.2665 27.6042 45.5237 28.9179 45.7405 30.2607L46.0748 32.3C46.1237 32.5941 46.1131 32.8949 46.0436 33.1848L45.7644 34.2865C45.5433 35.2292 45.6128 36.2168 45.9638 37.1192C46.6582 38.8824 48.3645 40.0379 50.2594 40.0282ZM50.2594 38.5777C48.9606 38.5838 47.7911 37.7922 47.3142 36.584C47.0759 35.9605 47.0279 35.2803 47.1764 34.6295L47.4542 33.5329C47.5714 33.0521 47.5899 32.5525 47.5086 32.0643L47.1743 30.0242C47.0693 29.3729 47.4171 28.7328 48.0206 28.4664L48.8184 31.268C49.0406 32.0307 49.4502 32.7256 50.0099 33.2893C50.1922 33.4776 50.4619 33.5531 50.7154 33.4865C50.9689 33.42 51.1668 33.2218 51.233 32.9682C51.2992 32.7146 51.2234 32.445 51.0347 32.263C50.6477 31.8737 50.3647 31.3934 50.2116 30.8662L49.1962 27.2915C49.1185 26.971 48.9931 26.6639 48.8242 26.3806L45.5954 21.6122C45.3944 21.3405 45.3994 20.9681 45.6077 20.702C45.7433 20.5451 45.9386 20.4525 46.1459 20.4467C46.3386 20.4406 46.5252 20.5149 46.6608 20.652L46.6717 20.6621L51.5308 25.3957C51.8543 25.7123 52.0715 26.1216 52.1523 26.567L53.3279 33.0354C53.4532 33.724 54.0524 34.225 54.7523 34.2263L55.6037 34.2263L55.6037 38.5777L50.2594 38.5777Z" fill="white"/>
<path d="M20.0001 51.2599L20.0001 56.6042C20.0001 57.4053 20.6495 58.0547 21.4506 58.0547L25.8021 58.0547C26.6031 58.0547 27.2525 57.4053 27.2525 56.6042L27.2525 55.7528L33.7209 54.5735C34.4601 54.4394 35.1394 54.0794 35.6653 53.543L40.3968 48.6889C40.8195 48.264 41.0476 47.6831 41.027 47.084C41.0064 46.4849 40.7389 45.9211 40.288 45.5262C39.9008 45.1847 39.4016 44.9976 38.8854 45.0004C38.4278 45.0016 37.9812 45.1401 37.6032 45.3978L32.9399 48.5541L32.9304 48.5294C32.4241 47.267 31.1104 46.5241 29.7677 46.741L27.7283 47.0753C27.4342 47.1242 27.1334 47.1136 26.8435 47.0441L25.7419 46.7649C24.7991 46.5438 23.8115 46.6133 22.9091 46.9643C21.1459 47.6587 19.9905 49.365 20.0001 51.2599ZM21.4506 51.2599C21.4445 49.9611 22.2362 48.7916 23.4443 48.3147C24.0678 48.0764 24.748 48.0284 25.3988 48.1769L26.4954 48.4547C26.9762 48.5719 27.4758 48.5904 27.964 48.5091L30.0041 48.1748C30.6554 48.0698 31.2955 48.4175 31.5619 49.0211L28.7603 49.8189C27.9976 50.0411 27.3028 50.4507 26.7391 51.0104C26.5507 51.1927 26.4753 51.4624 26.5418 51.7159C26.6084 51.9694 26.8065 52.1673 27.0601 52.2335C27.3137 52.2997 27.5833 52.2239 27.7653 52.0352C28.1546 51.6482 28.6349 51.3652 29.1621 51.2121L32.7368 50.1967C33.0573 50.119 33.3644 49.9936 33.6477 49.8247L38.4161 46.5959C38.6878 46.3949 39.0602 46.3999 39.3263 46.6082C39.4832 46.7438 39.5759 46.9391 39.5816 47.1464C39.5878 47.3391 39.5134 47.5256 39.3764 47.6613L39.3662 47.6722L34.6326 52.5313C34.316 52.8548 33.9067 53.072 33.4613 53.1528L26.9929 54.3284C26.3043 54.4537 25.8034 55.0529 25.8021 55.7528L25.8021 56.6042L21.4506 56.6042L21.4506 51.2599Z" fill="white"/>
<path d="M6.79477 19.9992L1.45048 19.9992C0.649401 19.9992 -8.90785e-07 20.6486 -8.55768e-07 21.4496L-6.65561e-07 25.8011C-6.30545e-07 26.6022 0.649401 27.2516 1.45048 27.2516L2.30191 27.2516L3.48115 33.72C3.61524 34.4591 3.97531 35.1384 4.51171 35.6643L9.36574 40.3958C9.7907 40.8185 10.3716 41.0467 10.9707 41.0261C11.5697 41.0055 12.1336 40.738 12.5285 40.287C12.87 39.8998 13.0571 39.4006 13.0543 38.8844C13.0531 38.4269 12.9146 37.9802 12.6569 37.6022L9.50064 32.9389L9.52529 32.9295C10.7877 32.4231 11.5305 31.1095 11.3137 29.7667L10.9794 27.7273C10.9305 27.4333 10.9411 27.1324 11.0106 26.8425L11.2898 25.7409C11.5109 24.7982 11.4414 23.8106 11.0904 22.9081C10.396 21.1449 8.68972 19.9895 6.79477 19.9992ZM6.79477 21.4496C8.09361 21.4435 9.26307 22.2352 9.73996 23.4433C9.97832 24.0668 10.0263 24.7471 9.87776 25.3979L9.59999 26.4944C9.4828 26.9752 9.4643 27.4748 9.5456 27.963L9.87994 30.0031C9.98492 30.6544 9.63714 31.2946 9.03358 31.5609L8.23582 28.7593C8.01363 27.9967 7.60398 27.3018 7.04425 26.7381C6.86203 26.5497 6.59233 26.4743 6.33881 26.5408C6.0853 26.6074 5.88742 26.8055 5.82123 27.0592C5.75503 27.3128 5.83083 27.5824 6.01949 27.7643C6.40647 28.1537 6.68951 28.6339 6.84263 29.1611L7.85797 32.7358C7.93572 33.0564 8.06113 33.3634 8.23002 33.6467L11.4588 38.4152C11.6598 38.6868 11.6548 39.0593 11.4465 39.3253C11.3109 39.4822 11.1156 39.5749 10.9083 39.5806C10.7156 39.5868 10.529 39.5124 10.3934 39.3754L10.3825 39.3652L5.52342 34.6316C5.1999 34.315 4.98271 33.9057 4.90189 33.4603L3.72628 26.9919C3.60099 26.3033 3.00183 25.8024 2.30191 25.8011L1.45048 25.8011L1.45048 21.4496L6.79477 21.4496Z" fill="white"/>
<mask id="path-5-outside-1_428_1937" maskUnits="userSpaceOnUse" x="13.3325" y="14.332" width="30" height="30" fill="black">
<rect fill="white" x="13.3325" y="14.332" width="30" height="30"/>
<path d="M42.0603 24.5574C39.9426 19.0002 34.6119 15.329 28.6648 15.3321C27.3421 15.3296 26.0256 15.5119 24.7533 15.8735L24.7341 15.8793C21.203 16.8777 18.1929 19.1996 16.3308 22.3616C16.2979 22.4172 16.2765 22.479 16.2681 22.5432C16.0392 22.8486 15.8493 23.1813 15.7026 23.5336L15.6667 23.6112C13.605 28.0519 13.95 33.2373 16.5818 37.3658C19.2136 41.4942 23.7689 43.9957 28.6648 44.001C31.9561 44.0039 35.1472 42.8686 37.6973 40.7877C37.9038 40.8054 38.098 40.6868 38.1764 40.4949C38.1914 40.4506 38.1999 40.4045 38.2018 40.3579C42.6426 36.4024 44.1781 30.1146 42.0603 24.5574ZM24.6838 16.8947C25.3173 17.6717 26.2508 18.1433 27.2522 18.1923C27.526 18.1994 27.7999 18.1874 28.0721 18.1563C28.5123 18.0566 28.9734 18.1114 29.3779 18.3116C29.6043 18.4327 29.7293 18.6838 29.6893 18.9374C29.5853 19.1285 29.4427 19.2957 29.2705 19.4286C28.8423 19.7191 28.5843 20.2016 28.5805 20.719C28.6129 21.0412 28.7854 21.3327 29.0521 21.5163C29.4463 21.7797 29.9321 21.8677 30.3937 21.7593C30.6494 21.6923 30.8985 21.6021 31.1379 21.4899C31.3555 21.3829 31.5857 21.3039 31.8231 21.2547C32.4297 21.1694 33.0526 21.5704 33.6885 22.0266C34.0072 22.2571 34.5261 22.6926 34.4188 23.0233C34.3364 23.2767 34.0268 23.4598 33.7 23.6543C33.5678 23.7324 33.4384 23.8091 33.2889 23.9131C32.7596 24.3138 32.1795 24.6427 31.5638 24.8911C31.3311 24.9685 31.0942 25.0325 30.8542 25.0828C30.3543 25.1702 29.874 25.3455 29.4354 25.6008C28.5551 26.1691 28.6625 27.0786 28.73 27.6253C28.7142 27.62 28.6969 27.6138 28.6782 27.6056C28.5963 27.5721 28.5158 27.5337 28.4358 27.4963C27.9403 27.1621 27.2984 27.1364 26.7778 27.43C26.2571 27.7236 25.947 28.2861 25.9766 28.8831C25.9766 30.0202 26.821 30.6834 27.4995 31.2157L27.7352 31.4026C27.885 31.5402 28.0197 31.6932 28.1372 31.8592C27.1741 31.6168 26.2103 31.3783 25.2459 31.1438C24.4351 30.9479 23.6167 30.7063 23.2812 30.1064C23.153 29.8346 23.0666 29.5449 23.0249 29.2473C22.9641 28.7749 22.7981 28.3224 22.539 27.9228C22.0472 27.3739 21.3845 27.0072 20.6582 26.8821L20.5705 26.8571C19.8518 26.6434 19.4579 26.3861 19.3295 26.0493C19.2494 25.6121 19.3207 25.1606 19.5317 24.7694C19.8026 24.2059 19.8929 23.5724 19.7904 22.9557C19.6829 22.4827 19.3668 22.0839 18.9308 21.8713C18.6718 21.7507 18.389 21.6899 18.1033 21.6935C18.0424 21.6935 17.9806 21.6964 17.9183 21.7012C19.6014 19.4168 21.9726 17.7321 24.6838 16.8947ZM26.6513 42.8871L26.6556 42.8914C26.4676 42.7871 26.2853 42.6729 26.1094 42.5493C25.722 42.308 25.4572 41.9117 25.3825 41.4615C25.4092 41.1725 25.5027 40.8936 25.6556 40.6469C25.7627 40.4188 25.8419 40.1786 25.8913 39.9315C25.9218 39.7072 26.0038 39.493 26.1309 39.3057C26.2726 39.1765 26.4368 39.0745 26.6154 39.0047C26.8153 38.9162 27.0055 38.807 27.1827 38.6789C27.5651 38.3744 27.8822 37.9959 28.1152 37.5663C28.2278 37.3688 28.3251 37.1537 28.419 36.9434C28.5464 36.6098 28.7242 36.2978 28.9461 36.0181C29.4252 35.5135 30.3692 35.8882 30.7516 36.0712C31.4813 36.3989 32.1521 36.8442 32.7373 37.3894L32.7924 37.446C33.4125 38.1013 34.0723 38.718 34.7681 39.2922C35.3437 39.7369 35.9744 40.1053 36.6446 40.3881C33.7813 42.5233 30.1825 43.4232 26.6513 42.8871ZM37.4912 39.7063C36.7313 39.4251 36.0166 39.0343 35.3699 38.5462C34.7048 37.9957 34.0738 37.4053 33.4805 36.778L33.4254 36.722C32.7648 36.096 32.0034 35.5857 31.1733 35.2126C29.961 34.6309 28.8982 34.6855 28.2556 35.363C27.956 35.7177 27.7175 36.1199 27.5498 36.5528C27.464 36.7416 27.3806 36.928 27.2882 37.0909C27.1177 37.4095 26.8856 37.691 26.6053 37.919C26.4794 38.0067 26.3451 38.0816 26.2043 38.1427C25.9123 38.2626 25.6473 38.4394 25.4247 38.6631C25.182 38.9662 25.0223 39.3271 24.9613 39.7106C24.9279 39.882 24.8757 40.0491 24.8056 40.209C24.5772 40.5901 24.4466 41.0216 24.4251 41.4653C24.4321 41.8134 24.5339 42.153 24.7193 42.4476C21.0285 41.3034 18.0117 38.6211 16.4436 35.0896C14.8756 31.558 14.909 27.5213 16.5354 24.0162L16.5718 23.9371C16.7019 23.5936 16.8961 23.278 17.144 23.007C17.2321 22.9192 17.336 22.8486 17.4502 22.7991C17.6568 22.7066 17.8803 22.6577 18.1067 22.6554C18.2466 22.6521 18.3856 22.6799 18.5135 22.7368C18.6944 22.8281 18.8229 22.9979 18.8614 23.1968C18.9034 23.6256 18.8235 24.0574 18.6309 24.4427C18.3251 25.0457 18.2545 25.7409 18.4331 26.393C18.7546 27.233 19.6506 27.5857 20.3018 27.7792L20.3977 27.8061C20.9155 27.8891 21.3951 28.1295 21.7715 28.4946C21.9415 28.7833 22.0494 29.1043 22.0882 29.4372C22.1471 29.8334 22.2684 30.2179 22.4476 30.5762C22.9709 31.5139 24.0524 31.8431 25.0242 32.0779C26.0669 32.3312 27.1105 32.5897 28.1551 32.8532C28.3651 32.9217 28.5919 32.9188 28.8001 32.8451C29.043 32.7507 29.2169 32.5338 29.2563 32.2763C29.3656 31.5503 28.3626 30.6773 28.3459 30.6648L28.0938 30.4645C27.4991 29.9978 26.9375 29.5569 26.9375 28.8832C26.9319 28.6002 27.0949 28.3409 27.3525 28.2234C27.5312 28.1491 27.6807 28.2033 28.0291 28.3672C28.125 28.4122 28.2208 28.4572 28.3085 28.4927C28.6808 28.6924 29.1387 28.6347 29.4498 28.349C29.6523 28.123 29.7377 27.8156 29.6808 27.5176C29.6022 26.8789 29.6329 26.6148 29.9549 26.4064C30.3026 26.2153 30.68 26.0842 31.0714 26.0187C31.347 25.9597 31.619 25.8847 31.886 25.794C32.5929 25.5119 33.2588 25.1364 33.866 24.6775C33.9618 24.6099 34.0725 24.5457 34.1837 24.4801C34.6965 24.2502 35.1047 23.8364 35.3275 23.3204C35.5532 22.6276 35.1894 21.9308 34.2455 21.2499C33.6393 20.8153 32.7203 20.1583 31.6824 20.3074C31.3603 20.3665 31.0478 20.469 30.7533 20.6121C30.5656 20.7006 30.3706 20.7728 30.1706 20.8277C29.9785 20.8721 29.7767 20.8403 29.6075 20.7391C29.5371 20.6882 29.5332 20.6485 29.5318 20.6337C29.5213 20.5091 29.6756 20.3553 29.9152 20.1343C30.2104 19.9024 30.4428 19.6003 30.5913 19.2555C30.7884 18.5778 30.4975 17.8531 29.8864 17.4999C29.3061 17.1807 28.6322 17.0754 27.9822 17.2023C27.7542 17.2291 27.5246 17.24 27.2951 17.2349C26.7222 17.2038 26.1756 16.9849 25.7397 16.612C31.7041 15.2684 37.8199 18.1421 40.5926 23.591C43.3652 29.04 42.0882 35.6756 37.4912 39.7063Z"/>
</mask>
<path d="M42.0603 24.5574C39.9426 19.0002 34.6119 15.329 28.6648 15.3321C27.3421 15.3296 26.0256 15.5119 24.7533 15.8735L24.7341 15.8793C21.203 16.8777 18.1929 19.1996 16.3308 22.3616C16.2979 22.4172 16.2765 22.479 16.2681 22.5432C16.0392 22.8486 15.8493 23.1813 15.7026 23.5336L15.6667 23.6112C13.605 28.0519 13.95 33.2373 16.5818 37.3658C19.2136 41.4942 23.7689 43.9957 28.6648 44.001C31.9561 44.0039 35.1472 42.8686 37.6973 40.7877C37.9038 40.8054 38.098 40.6868 38.1764 40.4949C38.1914 40.4506 38.1999 40.4045 38.2018 40.3579C42.6426 36.4024 44.1781 30.1146 42.0603 24.5574ZM24.6838 16.8947C25.3173 17.6717 26.2508 18.1433 27.2522 18.1923C27.526 18.1994 27.7999 18.1874 28.0721 18.1563C28.5123 18.0566 28.9734 18.1114 29.3779 18.3116C29.6043 18.4327 29.7293 18.6838 29.6893 18.9374C29.5853 19.1285 29.4427 19.2957 29.2705 19.4286C28.8423 19.7191 28.5843 20.2016 28.5805 20.719C28.6129 21.0412 28.7854 21.3327 29.0521 21.5163C29.4463 21.7797 29.9321 21.8677 30.3937 21.7593C30.6494 21.6923 30.8985 21.6021 31.1379 21.4899C31.3555 21.3829 31.5857 21.3039 31.8231 21.2547C32.4297 21.1694 33.0526 21.5704 33.6885 22.0266C34.0072 22.2571 34.5261 22.6926 34.4188 23.0233C34.3364 23.2767 34.0268 23.4598 33.7 23.6543C33.5678 23.7324 33.4384 23.8091 33.2889 23.9131C32.7596 24.3138 32.1795 24.6427 31.5638 24.8911C31.3311 24.9685 31.0942 25.0325 30.8542 25.0828C30.3543 25.1702 29.874 25.3455 29.4354 25.6008C28.5551 26.1691 28.6625 27.0786 28.73 27.6253C28.7142 27.62 28.6969 27.6138 28.6782 27.6056C28.5963 27.5721 28.5158 27.5337 28.4358 27.4963C27.9403 27.1621 27.2984 27.1364 26.7778 27.43C26.2571 27.7236 25.947 28.2861 25.9766 28.8831C25.9766 30.0202 26.821 30.6834 27.4995 31.2157L27.7352 31.4026C27.885 31.5402 28.0197 31.6932 28.1372 31.8592C27.1741 31.6168 26.2103 31.3783 25.2459 31.1438C24.4351 30.9479 23.6167 30.7063 23.2812 30.1064C23.153 29.8346 23.0666 29.5449 23.0249 29.2473C22.9641 28.7749 22.7981 28.3224 22.539 27.9228C22.0472 27.3739 21.3845 27.0072 20.6582 26.8821L20.5705 26.8571C19.8518 26.6434 19.4579 26.3861 19.3295 26.0493C19.2494 25.6121 19.3207 25.1606 19.5317 24.7694C19.8026 24.2059 19.8929 23.5724 19.7904 22.9557C19.6829 22.4827 19.3668 22.0839 18.9308 21.8713C18.6718 21.7507 18.389 21.6899 18.1033 21.6935C18.0424 21.6935 17.9806 21.6964 17.9183 21.7012C19.6014 19.4168 21.9726 17.7321 24.6838 16.8947ZM26.6513 42.8871L26.6556 42.8914C26.4676 42.7871 26.2853 42.6729 26.1094 42.5493C25.722 42.308 25.4572 41.9117 25.3825 41.4615C25.4092 41.1725 25.5027 40.8936 25.6556 40.6469C25.7627 40.4188 25.8419 40.1786 25.8913 39.9315C25.9218 39.7072 26.0038 39.493 26.1309 39.3057C26.2726 39.1765 26.4368 39.0745 26.6154 39.0047C26.8153 38.9162 27.0055 38.807 27.1827 38.6789C27.5651 38.3744 27.8822 37.9959 28.1152 37.5663C28.2278 37.3688 28.3251 37.1537 28.419 36.9434C28.5464 36.6098 28.7242 36.2978 28.9461 36.0181C29.4252 35.5135 30.3692 35.8882 30.7516 36.0712C31.4813 36.3989 32.1521 36.8442 32.7373 37.3894L32.7924 37.446C33.4125 38.1013 34.0723 38.718 34.7681 39.2922C35.3437 39.7369 35.9744 40.1053 36.6446 40.3881C33.7813 42.5233 30.1825 43.4232 26.6513 42.8871ZM37.4912 39.7063C36.7313 39.4251 36.0166 39.0343 35.3699 38.5462C34.7048 37.9957 34.0738 37.4053 33.4805 36.778L33.4254 36.722C32.7648 36.096 32.0034 35.5857 31.1733 35.2126C29.961 34.6309 28.8982 34.6855 28.2556 35.363C27.956 35.7177 27.7175 36.1199 27.5498 36.5528C27.464 36.7416 27.3806 36.928 27.2882 37.0909C27.1177 37.4095 26.8856 37.691 26.6053 37.919C26.4794 38.0067 26.3451 38.0816 26.2043 38.1427C25.9123 38.2626 25.6473 38.4394 25.4247 38.6631C25.182 38.9662 25.0223 39.3271 24.9613 39.7106C24.9279 39.882 24.8757 40.0491 24.8056 40.209C24.5772 40.5901 24.4466 41.0216 24.4251 41.4653C24.4321 41.8134 24.5339 42.153 24.7193 42.4476C21.0285 41.3034 18.0117 38.6211 16.4436 35.0896C14.8756 31.558 14.909 27.5213 16.5354 24.0162L16.5718 23.9371C16.7019 23.5936 16.8961 23.278 17.144 23.007C17.2321 22.9192 17.336 22.8486 17.4502 22.7991C17.6568 22.7066 17.8803 22.6577 18.1067 22.6554C18.2466 22.6521 18.3856 22.6799 18.5135 22.7368C18.6944 22.8281 18.8229 22.9979 18.8614 23.1968C18.9034 23.6256 18.8235 24.0574 18.6309 24.4427C18.3251 25.0457 18.2545 25.7409 18.4331 26.393C18.7546 27.233 19.6506 27.5857 20.3018 27.7792L20.3977 27.8061C20.9155 27.8891 21.3951 28.1295 21.7715 28.4946C21.9415 28.7833 22.0494 29.1043 22.0882 29.4372C22.1471 29.8334 22.2684 30.2179 22.4476 30.5762C22.9709 31.5139 24.0524 31.8431 25.0242 32.0779C26.0669 32.3312 27.1105 32.5897 28.1551 32.8532C28.3651 32.9217 28.5919 32.9188 28.8001 32.8451C29.043 32.7507 29.2169 32.5338 29.2563 32.2763C29.3656 31.5503 28.3626 30.6773 28.3459 30.6648L28.0938 30.4645C27.4991 29.9978 26.9375 29.5569 26.9375 28.8832C26.9319 28.6002 27.0949 28.3409 27.3525 28.2234C27.5312 28.1491 27.6807 28.2033 28.0291 28.3672C28.125 28.4122 28.2208 28.4572 28.3085 28.4927C28.6808 28.6924 29.1387 28.6347 29.4498 28.349C29.6523 28.123 29.7377 27.8156 29.6808 27.5176C29.6022 26.8789 29.6329 26.6148 29.9549 26.4064C30.3026 26.2153 30.68 26.0842 31.0714 26.0187C31.347 25.9597 31.619 25.8847 31.886 25.794C32.5929 25.5119 33.2588 25.1364 33.866 24.6775C33.9618 24.6099 34.0725 24.5457 34.1837 24.4801C34.6965 24.2502 35.1047 23.8364 35.3275 23.3204C35.5532 22.6276 35.1894 21.9308 34.2455 21.2499C33.6393 20.8153 32.7203 20.1583 31.6824 20.3074C31.3603 20.3665 31.0478 20.469 30.7533 20.6121C30.5656 20.7006 30.3706 20.7728 30.1706 20.8277C29.9785 20.8721 29.7767 20.8403 29.6075 20.7391C29.5371 20.6882 29.5332 20.6485 29.5318 20.6337C29.5213 20.5091 29.6756 20.3553 29.9152 20.1343C30.2104 19.9024 30.4428 19.6003 30.5913 19.2555C30.7884 18.5778 30.4975 17.8531 29.8864 17.4999C29.3061 17.1807 28.6322 17.0754 27.9822 17.2023C27.7542 17.2291 27.5246 17.24 27.2951 17.2349C26.7222 17.2038 26.1756 16.9849 25.7397 16.612C31.7041 15.2684 37.8199 18.1421 40.5926 23.591C43.3652 29.04 42.0882 35.6756 37.4912 39.7063Z" fill="white"/>
<path d="M42.0603 24.5574C39.9426 19.0002 34.6119 15.329 28.6648 15.3321C27.3421 15.3296 26.0256 15.5119 24.7533 15.8735L24.7341 15.8793C21.203 16.8777 18.1929 19.1996 16.3308 22.3616C16.2979 22.4172 16.2765 22.479 16.2681 22.5432C16.0392 22.8486 15.8493 23.1813 15.7026 23.5336L15.6667 23.6112C13.605 28.0519 13.95 33.2373 16.5818 37.3658C19.2136 41.4942 23.7689 43.9957 28.6648 44.001C31.9561 44.0039 35.1472 42.8686 37.6973 40.7877C37.9038 40.8054 38.098 40.6868 38.1764 40.4949C38.1914 40.4506 38.1999 40.4045 38.2018 40.3579C42.6426 36.4024 44.1781 30.1146 42.0603 24.5574ZM24.6838 16.8947C25.3173 17.6717 26.2508 18.1433 27.2522 18.1923C27.526 18.1994 27.7999 18.1874 28.0721 18.1563C28.5123 18.0566 28.9734 18.1114 29.3779 18.3116C29.6043 18.4327 29.7293 18.6838 29.6893 18.9374C29.5853 19.1285 29.4427 19.2957 29.2705 19.4286C28.8423 19.7191 28.5843 20.2016 28.5805 20.719C28.6129 21.0412 28.7854 21.3327 29.0521 21.5163C29.4463 21.7797 29.9321 21.8677 30.3937 21.7593C30.6494 21.6923 30.8985 21.6021 31.1379 21.4899C31.3555 21.3829 31.5857 21.3039 31.8231 21.2547C32.4297 21.1694 33.0526 21.5704 33.6885 22.0266C34.0072 22.2571 34.5261 22.6926 34.4188 23.0233C34.3364 23.2767 34.0268 23.4598 33.7 23.6543C33.5678 23.7324 33.4384 23.8091 33.2889 23.9131C32.7596 24.3138 32.1795 24.6427 31.5638 24.8911C31.3311 24.9685 31.0942 25.0325 30.8542 25.0828C30.3543 25.1702 29.874 25.3455 29.4354 25.6008C28.5551 26.1691 28.6625 27.0786 28.73 27.6253C28.7142 27.62 28.6969 27.6138 28.6782 27.6056C28.5963 27.5721 28.5158 27.5337 28.4358 27.4963C27.9403 27.1621 27.2984 27.1364 26.7778 27.43C26.2571 27.7236 25.947 28.2861 25.9766 28.8831C25.9766 30.0202 26.821 30.6834 27.4995 31.2157L27.7352 31.4026C27.885 31.5402 28.0197 31.6932 28.1372 31.8592C27.1741 31.6168 26.2103 31.3783 25.2459 31.1438C24.4351 30.9479 23.6167 30.7063 23.2812 30.1064C23.153 29.8346 23.0666 29.5449 23.0249 29.2473C22.9641 28.7749 22.7981 28.3224 22.539 27.9228C22.0472 27.3739 21.3845 27.0072 20.6582 26.8821L20.5705 26.8571C19.8518 26.6434 19.4579 26.3861 19.3295 26.0493C19.2494 25.6121 19.3207 25.1606 19.5317 24.7694C19.8026 24.2059 19.8929 23.5724 19.7904 22.9557C19.6829 22.4827 19.3668 22.0839 18.9308 21.8713C18.6718 21.7507 18.389 21.6899 18.1033 21.6935C18.0424 21.6935 17.9806 21.6964 17.9183 21.7012C19.6014 19.4168 21.9726 17.7321 24.6838 16.8947ZM26.6513 42.8871L26.6556 42.8914C26.4676 42.7871 26.2853 42.6729 26.1094 42.5493C25.722 42.308 25.4572 41.9117 25.3825 41.4615C25.4092 41.1725 25.5027 40.8936 25.6556 40.6469C25.7627 40.4188 25.8419 40.1786 25.8913 39.9315C25.9218 39.7072 26.0038 39.493 26.1309 39.3057C26.2726 39.1765 26.4368 39.0745 26.6154 39.0047C26.8153 38.9162 27.0055 38.807 27.1827 38.6789C27.5651 38.3744 27.8822 37.9959 28.1152 37.5663C28.2278 37.3688 28.3251 37.1537 28.419 36.9434C28.5464 36.6098 28.7242 36.2978 28.9461 36.0181C29.4252 35.5135 30.3692 35.8882 30.7516 36.0712C31.4813 36.3989 32.1521 36.8442 32.7373 37.3894L32.7924 37.446C33.4125 38.1013 34.0723 38.718 34.7681 39.2922C35.3437 39.7369 35.9744 40.1053 36.6446 40.3881C33.7813 42.5233 30.1825 43.4232 26.6513 42.8871ZM37.4912 39.7063C36.7313 39.4251 36.0166 39.0343 35.3699 38.5462C34.7048 37.9957 34.0738 37.4053 33.4805 36.778L33.4254 36.722C32.7648 36.096 32.0034 35.5857 31.1733 35.2126C29.961 34.6309 28.8982 34.6855 28.2556 35.363C27.956 35.7177 27.7175 36.1199 27.5498 36.5528C27.464 36.7416 27.3806 36.928 27.2882 37.0909C27.1177 37.4095 26.8856 37.691 26.6053 37.919C26.4794 38.0067 26.3451 38.0816 26.2043 38.1427C25.9123 38.2626 25.6473 38.4394 25.4247 38.6631C25.182 38.9662 25.0223 39.3271 24.9613 39.7106C24.9279 39.882 24.8757 40.0491 24.8056 40.209C24.5772 40.5901 24.4466 41.0216 24.4251 41.4653C24.4321 41.8134 24.5339 42.153 24.7193 42.4476C21.0285 41.3034 18.0117 38.6211 16.4436 35.0896C14.8756 31.558 14.909 27.5213 16.5354 24.0162L16.5718 23.9371C16.7019 23.5936 16.8961 23.278 17.144 23.007C17.2321 22.9192 17.336 22.8486 17.4502 22.7991C17.6568 22.7066 17.8803 22.6577 18.1067 22.6554C18.2466 22.6521 18.3856 22.6799 18.5135 22.7368C18.6944 22.8281 18.8229 22.9979 18.8614 23.1968C18.9034 23.6256 18.8235 24.0574 18.6309 24.4427C18.3251 25.0457 18.2545 25.7409 18.4331 26.393C18.7546 27.233 19.6506 27.5857 20.3018 27.7792L20.3977 27.8061C20.9155 27.8891 21.3951 28.1295 21.7715 28.4946C21.9415 28.7833 22.0494 29.1043 22.0882 29.4372C22.1471 29.8334 22.2684 30.2179 22.4476 30.5762C22.9709 31.5139 24.0524 31.8431 25.0242 32.0779C26.0669 32.3312 27.1105 32.5897 28.1551 32.8532C28.3651 32.9217 28.5919 32.9188 28.8001 32.8451C29.043 32.7507 29.2169 32.5338 29.2563 32.2763C29.3656 31.5503 28.3626 30.6773 28.3459 30.6648L28.0938 30.4645C27.4991 29.9978 26.9375 29.5569 26.9375 28.8832C26.9319 28.6002 27.0949 28.3409 27.3525 28.2234C27.5312 28.1491 27.6807 28.2033 28.0291 28.3672C28.125 28.4122 28.2208 28.4572 28.3085 28.4927C28.6808 28.6924 29.1387 28.6347 29.4498 28.349C29.6523 28.123 29.7377 27.8156 29.6808 27.5176C29.6022 26.8789 29.6329 26.6148 29.9549 26.4064C30.3026 26.2153 30.68 26.0842 31.0714 26.0187C31.347 25.9597 31.619 25.8847 31.886 25.794C32.5929 25.5119 33.2588 25.1364 33.866 24.6775C33.9618 24.6099 34.0725 24.5457 34.1837 24.4801C34.6965 24.2502 35.1047 23.8364 35.3275 23.3204C35.5532 22.6276 35.1894 21.9308 34.2455 21.2499C33.6393 20.8153 32.7203 20.1583 31.6824 20.3074C31.3603 20.3665 31.0478 20.469 30.7533 20.6121C30.5656 20.7006 30.3706 20.7728 30.1706 20.8277C29.9785 20.8721 29.7767 20.8403 29.6075 20.7391C29.5371 20.6882 29.5332 20.6485 29.5318 20.6337C29.5213 20.5091 29.6756 20.3553 29.9152 20.1343C30.2104 19.9024 30.4428 19.6003 30.5913 19.2555C30.7884 18.5778 30.4975 17.8531 29.8864 17.4999C29.3061 17.1807 28.6322 17.0754 27.9822 17.2023C27.7542 17.2291 27.5246 17.24 27.2951 17.2349C26.7222 17.2038 26.1756 16.9849 25.7397 16.612C31.7041 15.2684 37.8199 18.1421 40.5926 23.591C43.3652 29.04 42.0882 35.6756 37.4912 39.7063Z" stroke="white" stroke-width="0.6" mask="url(#path-5-outside-1_428_1937)"/>
</g>
<defs>
<clipPath id="clip0_428_1937">
<rect width="58" height="58" fill="white"/>
</clipPath>
</defs>
</svg>
